<svg xmlns="http://www.w3.org/2000/svg" viewBox="0 0 750 500"><defs><style>.cls-1{isolation:isolate;}.cls-2{fill:#7c998e;}.cls-3{mix-blend-mode:multiply;}.cls-4{fill:#fff;}</style></defs><title>Mesa de trabajo 1</title><g class="cls-1"><g id="BackHills"><path class="cls-2" d="M750,238V500H0V139.49a358.84,358.84,0,0,1,148.64,28.65c30.1,12.87,58.22,29.78,87,45.49q8.13,4.44,16.33,8.72,6.45,3.35,13,6.54a541.55,541.55,0,0,0,59.63,24.92q20.37,7.1,41.25,12.31h0a407.13,407.13,0,0,0,52.62,9.56,356.62,356.62,0,0,0,37.92,2.3,320.08,320.08,0,0,0,52.41-3.87q2.76-.42,5.51-.91c6.56-1.16,13.08-2.53,19.56-4.06,13.27-3.12,26.4-6.89,39.5-10.76,14.12-4.18,28.2-8.49,42.41-12.27h0c11.76-3.14,23.6-5.91,35.6-8A298.78,298.78,0,0,1,750,238Z"/><g class="cls-3"><path class="cls-4" d="M744.79,285.52a23.86,23.86,0,0,0-3.42-.46c-8.24-.5-16,3.43-23.39,7.11s-15.4,7.3-23.57,6.14c-6.71-.95-13.09-6.58-13.8-12.93a6.39,6.39,0,0,0-5.53-5.46c-30-4.2-58.83,23.75-90.26,23.83-5,0-10.33-.88-13.8-4.44a9.67,9.67,0,0,1-2.6-6.61,6.46,6.46,0,0,0-6.79-6.37C525.32,288,490.57,311,454.38,309.53a6.29,6.29,0,0,1-5.83-5c-.88-3.82-5.8-7.58-10.3-8.49-31.89-6.38-65,25.88-94.66,12.5-9.91-4.48-20.62-13.72-30-12.43a6.4,6.4,0,0,0-5.39,6.92v.09a6.5,6.5,0,0,1-4.79,6.8A39.23,39.23,0,0,1,268,301.72c-4.86-4.29-9.16-10.11-15.57-11.12-5.82-.92-11.31,2.51-16.62,5.07-19.43,9.41-42.72,8.15-63.06.92s-38.25-19.92-55.35-33.1c-6.72-5.18-13.78-10.65-22.17-11.89s-18.34,3.63-19.4,12c-.58,4.66,1.6,9.27,1.41,14C76.68,291.42,58,296,44.43,293.23a88.09,88.09,0,0,1-34.17-15.18A6.47,6.47,0,0,0,0,283.31V493.52A6.48,6.48,0,0,0,6.48,500h737a6.48,6.48,0,0,0,6.48-6.48V291.88A6.5,6.5,0,0,0,744.79,285.52Z"/></g></g></g></svg>