<svg id="aspas" xmlns="http://www.w3.org/2000/svg" width="171.63" height="171.63" viewBox="0 0 171.63 171.63">
  <defs>
    <style>
      .cls-1 {
        opacity: 0.6;
      }

      .cls-2 {
        fill: #e3b259;
      }

      .cls-3 {
        fill: none;
        stroke: #332329;
        stroke-linecap: square;
        stroke-linejoin: bevel;
        stroke-width: 0.5px;
      }

      .cls-4 {
        fill: #eba078;
      }
    </style>
  </defs>
  <title>Blades</title>
  <g id="Capa_4" data-name="Capa 4">
    <g class="cls-1">
      <polygon class="cls-2" points="151.21 0.18 111.69 47.08 124.55 59.94 171.46 20.43 151.21 0.18"/>
      <polygon class="cls-2" points="59.94 47.08 47.08 59.94 0.18 20.43 20.43 0.18 59.94 47.08"/>
      <polygon class="cls-2" points="59.94 124.55 47.08 111.69 0.18 151.21 20.43 171.46 59.94 124.55"/>
      <polygon class="cls-2" points="124.55 111.69 111.69 124.55 151.21 171.46 171.46 151.21 124.55 111.69"/>
    </g>
    <g>
      <g>
        <g>
          <polygon class="cls-3" points="85.82 85.82 142.59 36.44 135.19 29.04 85.82 85.82"/>
          <polygon class="cls-3" points="171.46 20.43 151.21 0.18 111.69 47.08 124.55 59.94 171.46 20.43"/>
          <polygon class="cls-3" points="114.42 49.81 151.9 4.95 166.69 19.73 121.82 57.21 114.42 49.81"/>
          <g>
            <line class="cls-3" x1="147.61" y1="10.08" x2="161.55" y2="24.02"/>
            <line class="cls-3" x1="143.32" y1="15.21" x2="156.42" y2="28.31"/>
            <line class="cls-3" x1="139.03" y1="20.35" x2="151.28" y2="32.6"/>
            <line class="cls-3" x1="134.75" y1="25.48" x2="146.15" y2="36.88"/>
            <line class="cls-3" x1="130.46" y1="30.62" x2="141.01" y2="41.17"/>
            <line class="cls-3" x1="126.17" y1="35.75" x2="135.88" y2="45.46"/>
            <line class="cls-3" x1="121.88" y1="40.88" x2="130.75" y2="49.75"/>
            <line class="cls-3" x1="117.54" y1="46.08" x2="125.55" y2="54.09"/>
          </g>
        </g>
        <g>
          <polygon class="cls-3" points="85.82 85.82 29.04 135.19 36.44 142.59 85.82 85.82"/>
          <polygon class="cls-3" points="0.18 151.21 20.43 171.46 59.94 124.55 47.08 111.69 0.18 151.21"/>
          <polygon class="cls-3" points="57.21 121.82 19.73 166.69 4.95 151.9 49.81 114.42 57.21 121.82"/>
          <g>
            <line class="cls-3" x1="24.02" y1="161.55" x2="10.08" y2="147.61"/>
            <line class="cls-3" x1="28.31" y1="156.42" x2="15.21" y2="143.32"/>
            <line class="cls-3" x1="32.6" y1="151.28" x2="20.35" y2="139.03"/>
            <line class="cls-3" x1="36.88" y1="146.15" x2="25.48" y2="134.75"/>
            <line class="cls-3" x1="41.17" y1="141.01" x2="30.62" y2="130.46"/>
            <line class="cls-3" x1="45.46" y1="135.88" x2="35.75" y2="126.17"/>
            <line class="cls-3" x1="49.75" y1="130.75" x2="40.88" y2="121.88"/>
            <line class="cls-3" x1="54.09" y1="125.55" x2="46.08" y2="117.54"/>
          </g>
        </g>
        <g>
          <polygon class="cls-3" points="85.82 85.82 135.19 142.59 142.59 135.19 85.82 85.82"/>
          <polygon class="cls-3" points="151.21 171.46 171.46 151.21 124.55 111.69 111.69 124.55 151.21 171.46"/>
          <polygon class="cls-3" points="121.82 114.42 166.69 151.9 151.9 166.69 114.42 121.82 121.82 114.42"/>
          <g>
            <line class="cls-3" x1="161.55" y1="147.61" x2="147.61" y2="161.55"/>
            <line class="cls-3" x1="156.42" y1="143.32" x2="143.32" y2="156.42"/>
            <line class="cls-3" x1="151.28" y1="139.03" x2="139.03" y2="151.28"/>
            <line class="cls-3" x1="146.15" y1="134.75" x2="134.75" y2="146.15"/>
            <line class="cls-3" x1="141.01" y1="130.46" x2="130.46" y2="141.01"/>
            <line class="cls-3" x1="135.88" y1="126.17" x2="126.17" y2="135.88"/>
            <line class="cls-3" x1="130.75" y1="121.88" x2="121.88" y2="130.75"/>
            <line class="cls-3" x1="125.55" y1="117.54" x2="117.54" y2="125.55"/>
          </g>
        </g>
        <g>
          <polygon class="cls-3" points="85.82 85.82 36.44 29.04 29.04 36.44 85.82 85.82"/>
          <polygon class="cls-3" points="20.43 0.18 0.18 20.43 47.08 59.94 59.94 47.08 20.43 0.18"/>
          <polygon class="cls-3" points="49.81 57.21 4.95 19.73 19.73 4.95 57.21 49.81 49.81 57.21"/>
          <g>
            <line class="cls-3" x1="10.08" y1="24.02" x2="24.02" y2="10.08"/>
            <line class="cls-3" x1="15.21" y1="28.31" x2="28.31" y2="15.21"/>
            <line class="cls-3" x1="20.35" y1="32.6" x2="32.6" y2="20.35"/>
            <line class="cls-3" x1="25.48" y1="36.88" x2="36.88" y2="25.48"/>
            <line class="cls-3" x1="30.62" y1="41.17" x2="41.17" y2="30.62"/>
            <line class="cls-3" x1="35.75" y1="45.46" x2="45.46" y2="35.75"/>
            <line class="cls-3" x1="40.88" y1="49.75" x2="49.75" y2="40.88"/>
            <line class="cls-3" x1="46.08" y1="54.09" x2="54.09" y2="46.08"/>
          </g>
        </g>
      </g>
      <circle class="cls-4" cx="85.82" cy="85.82" r="5.65"/>
    </g>
  </g>
</svg>
