<svg xmlns="http://www.w3.org/2000/svg" viewBox="0 0 750 500"><defs><style>.cls-1{isolation:isolate;}.cls-2{fill:#104f38;}.cls-3{fill:#300515;opacity:0.08;mix-blend-mode:multiply;}</style></defs><title>Mesa de trabajo 1</title><g class="cls-1"><g id="backHills"><path class="cls-2" d="M750,238V500H0V139.49a358.84,358.84,0,0,1,148.64,28.65c30.1,12.87,58.22,29.78,87,45.49q8.13,4.44,16.33,8.72,6.45,3.35,13,6.54a541.55,541.55,0,0,0,59.63,24.92q20.37,7.1,41.25,12.31h0a407.13,407.13,0,0,0,52.62,9.56,356.62,356.62,0,0,0,37.92,2.3,320.08,320.08,0,0,0,52.41-3.87q2.76-.42,5.51-.91c6.56-1.16,13.08-2.53,19.56-4.06,13.27-3.12,26.4-6.89,39.5-10.76,14.12-4.18,28.2-8.49,42.41-12.27h0c11.76-3.14,23.6-5.91,35.6-8A298.78,298.78,0,0,1,750,238Z"/><path class="cls-3" d="M750,291.88V493.52a6.48,6.48,0,0,1-6.48,6.48H6.48A6.48,6.48,0,0,1,0,493.52V283.31a6.47,6.47,0,0,1,10.26-5.26,88.09,88.09,0,0,0,34.17,15.18C58,296,76.68,291.42,77.25,277.62c.19-4.7-2-9.31-1.41-14,1.06-8.42,11-13.28,19.4-12s15.45,6.71,22.17,11.89c17.1,13.18,35,25.87,55.35,33.1s43.63,8.49,63.06-.92c5.31-2.56,10.8-6,16.62-5.07,6.41,1,10.71,6.83,15.57,11.12a39.23,39.23,0,0,0,35.37,8.17,6.5,6.5,0,0,0,4.79-6.8V303a6.4,6.4,0,0,1,5.39-6.92c9.42-1.29,20.13,7.95,30,12.43,29.64,13.38,62.77-18.88,94.66-12.5,4.5.91,9.42,4.67,10.3,8.49a6.29,6.29,0,0,0,5.83,5c36.19,1.45,70.94-21.49,107.25-23.2a6.46,6.46,0,0,1,6.79,6.37,9.67,9.67,0,0,0,2.6,6.61c3.47,3.56,8.83,4.45,13.8,4.44,31.43-.08,60.23-28,90.26-23.83a6.39,6.39,0,0,1,5.53,5.46c.71,6.35,7.09,12,13.8,12.93,8.17,1.16,16.18-2.46,23.57-6.14s15.15-7.61,23.39-7.11a23.86,23.86,0,0,1,3.42.46A6.5,6.5,0,0,1,750,291.88Z"/></g></g></svg>