<svg id="estrellas" xmlns="http://www.w3.org/2000/svg" viewBox="0 0 750 500"><defs><style>.cls-1{fill:#eee;}</style></defs><title>Mesa de trabajo 1</title><path class="cls-1" d="M295.34,75.17a.63.63,0,0,0,0-1.25.63.63,0,0,0,0,1.25Z"/><path class="cls-1" d="M284.62,48.11a.63.63,0,0,0,0-1.25.63.63,0,0,0,0,1.25Z"/><path class="cls-1" d="M226.91,90.49a.63.63,0,0,0,0-1.25.63.63,0,0,0,0,1.25Z"/><path class="cls-1" d="M345.89,156.36a.63.63,0,0,0,0-1.25.63.63,0,0,0,0,1.25Z"/><path class="cls-1" d="M519.51,84.87a.63.63,0,0,0,0-1.25.63.63,0,0,0,0,1.25Z"/><path class="cls-1" d="M609.89,49.13a.63.63,0,0,0,0-1.25.63.63,0,0,0,0,1.25Z"/><path class="cls-1" d="M459.25,48.62a.63.63,0,0,0,0-1.25.63.63,0,0,0,0,1.25Z"/><path class="cls-1" d="M427.59,56.79a.63.63,0,0,0,0-1.25.63.63,0,0,0,0,1.25Z"/><path class="cls-1" d="M351.51,57.3a.63.63,0,0,0,0-1.25.63.63,0,0,0,0,1.25Z"/><path class="cls-1" d="M428.62,128.79a.63.63,0,0,0,0-1.25.63.63,0,0,0,0,1.25Z"/><path class="cls-1" d="M416.87,215.59a.63.63,0,0,0,0-1.25.63.63,0,0,0,0,1.25Z"/><path class="cls-1" d="M669.64,70.83a.63.63,0,0,0,0-1.25.63.63,0,0,0,0,1.25Z"/><path class="cls-1" d="M714.06,186.49a.63.63,0,0,0,0-1.25.63.63,0,0,0,0,1.25Z"/><path class="cls-1" d="M641.3,204.11a.63.63,0,0,0,0-1.25.63.63,0,0,0,0,1.25Z"/><path class="cls-1" d="M721.72,111.42a.63.63,0,0,0,0-1.25.63.63,0,0,0,0,1.25Z"/><path class="cls-1" d="M592.27,84.62a.63.63,0,0,0,0-1.25.63.63,0,0,0,0,1.25Z"/><path class="cls-1" d="M578.49,138.23a.63.63,0,0,0,0-1.25.63.63,0,0,0,0,1.25Z"/><path class="cls-1" d="M495,204.87a.63.63,0,0,0,0-1.25.63.63,0,0,0,0,1.25Z"/><path class="cls-1" d="M332.62,195.68a.63.63,0,0,0,0-1.25.63.63,0,0,0,0,1.25Z"/><path class="cls-1" d="M262.91,191.08a.63.63,0,0,0,0-1.25.63.63,0,0,0,0,1.25Z"/><path class="cls-1" d="M298.15,142.83a.63.63,0,0,0,0-1.25.63.63,0,0,0,0,1.25Z"/><path class="cls-1" d="M382.4,93.81a.63.63,0,0,0,0-1.25.63.63,0,0,0,0,1.25Z"/><path class="cls-1" d="M177.38,29.85a.63.63,0,0,0,0-1.25.63.63,0,0,0,0,1.25Z"/><path class="cls-1" d="M188.1,101.34a.63.63,0,0,0,0-1.25.63.63,0,0,0,0,1.25Z"/><path class="cls-1" d="M105.89,47.47a.63.63,0,0,0,0-1.25.63.63,0,0,0,0,1.25Z"/><path class="cls-1" d="M122,97.25A.63.63,0,0,0,122,96a.63.63,0,0,0,0,1.25Z"/><path class="cls-1" d="M131.17,18.36a.63.63,0,0,0,0-1.25.63.63,0,0,0,0,1.25Z"/><path class="cls-1" d="M34.66,12.23a.63.63,0,0,0,0-1.25.63.63,0,0,0,0,1.25Z"/><path class="cls-1" d="M11.68,65.85a.63.63,0,0,0,0-1.25.63.63,0,0,0,0,1.25Z"/><path class="cls-1" d="M65.3,85.77a.63.63,0,0,0,0-1.25.63.63,0,0,0,0,1.25Z"/><path class="cls-1" d="M62.23,42.11a.63.63,0,0,0,0-1.25.63.63,0,0,0,0,1.25Z"/><path class="cls-1" d="M23.93,114.49a.63.63,0,0,0,0-1.25.63.63,0,0,0,0,1.25Z"/><path class="cls-1" d="M167.93,128.28a.63.63,0,0,0,0-1.25.63.63,0,0,0,0,1.25Z"/><path class="cls-1" d="M730.15,21.81a.63.63,0,0,0,0-1.25.63.63,0,0,0,0,1.25Z"/></svg>