<svg id="Snow1" xmlns="http://www.w3.org/2000/svg" viewBox="0 0 750 500"><defs><style>.cls-1{fill:#fff;}.cls-2{fill:#fff3f3;}</style></defs><title>Mesa de trabajo 1</title><g id="Capa_12" data-name="Capa 12"><path class="cls-1" d="M556.62,196.44c-5.22,1.76-10.93.77-16.82-1.19l21.91-26.2,24.62,29.49c-5.78,3.1-11.35,4-16.3-1.15"/><path class="cls-1" d="M599,230.88h42.29l2.62,6.78c-10-2.94-16.73-4.32-17.54-2.94-3.72,2.46-7.29,4.6-8.94,2.39-2.76-1.11-5.57-2.13-10-1a8.81,8.81,0,0,1-3.51,1.58c-3-1.94-4.69-4.21-4.93-6.82"/><path class="cls-2" d="M0,346.71V321.33c74.07-8.39,147.55-8.3,220,6.22.51,0-9.7,18.58-29.52,19.16S128,336.65,94.13,342.62"/><path class="cls-2" d="M323.34,370.82c72.22-41.58,172.33-59.38,300.7-54.62-29.93,15.64-66.35,29.37-123.59,37,0,0-41.42,4.3-45.48,0s-28.21-3.78-65,12.94S323.34,370.82,323.34,370.82Z"/><path class="cls-2" d="M643.16,316.65c38,1.45,73.94,3.65,106.84,7.05-1.18,16.44-18,18.11-33,20.12s-44.86-17.4-54.77-14.34S643.16,316.65,643.16,316.65Z"/><path class="cls-2" d="M31.42,406c259.22-13.78,493.73-3.11,693.87,41.58,0,0-197.14-16.67-323.48-28S31.42,406,31.42,406Z"/></g></svg>