<svg xmlns="http://www.w3.org/2000/svg" viewBox="0 0 750 500"><defs><style>.cls-1{isolation:isolate;}.cls-2{fill:#3a5142;}.cls-12,.cls-19,.cls-28,.cls-3{fill:#300515;}.cls-11,.cls-3{opacity:0.1;}.cls-11,.cls-19,.cls-23,.cls-28,.cls-3,.cls-31{mix-blend-mode:multiply;}.cls-31,.cls-4,.cls-6{opacity:0.3;}.cls-13,.cls-14,.cls-17,.cls-4,.cls-6,.cls-8{mix-blend-mode:overlay;}.cls-14,.cls-17,.cls-5,.cls-6{fill:#fff3f3;}.cls-7{fill:#576d59;}.cls-17,.cls-8{opacity:0.4;}.cls-9{fill:#42362e;}.cls-10{fill:#3a513e;}.cls-13,.cls-14,.cls-19,.cls-23{opacity:0.2;}.cls-15{fill:#776252;}.cls-16{fill:#4f6d51;}.cls-18{fill:#473737;}.cls-20{fill:#2b1c20;}.cls-21{fill:#6d4646;}.cls-22{fill:#3d2a2a;}.cls-24{fill:#493030;}.cls-25{fill:#382525;}.cls-26,.cls-33{fill:none;}.cls-26{stroke:#332329;stroke-linecap:square;stroke-linejoin:bevel;stroke-width:0.3px;}.cls-27{fill:#26332a;}.cls-28{opacity:0.08;}.cls-29{fill:#445644;}.cls-30{fill:#877346;}.cls-32{fill:#f0b91a;}.cls-33{stroke:#9e7502;stroke-miterlimit:10;}.cls-34{fill:#596b4d;}.cls-35{fill:#2d3526;}.cls-36{fill:#4a5940;}</style></defs><title>Mesa de trabajo 1</title><g class="cls-1"><g id="MillBlades"><g id="FrontHills"><g id="Capa_9" data-name="Capa 9"><path class="cls-2" d="M41.69,315.55A6.74,6.74,0,0,1,39,320.94a15.34,15.34,0,0,1-6.43,2.58c-5.55.8-12.24,2.67-17.8,3.46a12.43,12.43,0,0,1-7.38-9.49,5.24,5.24,0,0,1,0-1.25,2.26,2.26,0,0,1,.62-1.5,1.5,1.5,0,0,1,1.91,0,8,8,0,0,1-.8-4.58c.31-1.79,1.85-3.46,3.66-3.37s3.23,2,4.17,3.71a40,40,0,0,1,1.93-20.35,4.17,4.17,0,0,1,1.3-2.05,3.1,3.1,0,0,1,2.63-.26c2.94.89,4.41,4.17,5,7.18a27,27,0,0,1-.38,11.9,3.7,3.7,0,0,1,3.1-1.83,3.6,3.6,0,0,1,1.22.21,4.44,4.44,0,0,1,2.72,2.88,5.14,5.14,0,0,1-.38,3.67,4.42,4.42,0,0,1,4.29-1A5.2,5.2,0,0,1,41.69,315.55Z"/><path class="cls-3" d="M38.28,310.77a4.42,4.42,0,0,0-4.29,1,5.14,5.14,0,0,0,.38-3.67,4.44,4.44,0,0,0-2.72-2.88,8.33,8.33,0,0,1-.46,2.57c-.68,1.94-2.49,4.32-4.83,4a.52.52,0,0,0-.64.49A3.9,3.9,0,0,1,19.45,315a.51.51,0,0,0-.86.36A2.05,2.05,0,0,1,16.83,317a3.39,3.39,0,0,1-2.76-1.06.52.52,0,0,0-.81.1,3.54,3.54,0,0,1-4.36,1.44,3.71,3.71,0,0,1-1.6-1.2,5.24,5.24,0,0,0,0,1.25A12.43,12.43,0,0,0,14.73,327c5.56-.79,12.25-2.66,17.8-3.46A15.34,15.34,0,0,0,39,320.94a6.74,6.74,0,0,0,2.73-5.39A5.2,5.2,0,0,0,38.28,310.77Z"/><g class="cls-4"><path class="cls-5" d="M22,291.71c.17-.36-.35-.67-.54-.32a21,21,0,0,0-1.76,4.22,27.07,27.07,0,0,0-.77,4.48,40.51,40.51,0,0,0-.17,4.68c0,.8,0,1.6.08,2.4,0,.36,0,.72.07,1.08a5,5,0,0,0,.29,1.21c.12.42.85.5.93,0a6.4,6.4,0,0,0,.17-1c0-.4-.05-.8-.07-1.19,0-.77-.08-1.53-.11-2.3-.06-1.48-.09-3,0-4.46A22.57,22.57,0,0,1,22,291.71Z"/><path class="cls-5" d="M11,310.41a4.16,4.16,0,0,1,.13-.59,3.77,3.77,0,0,0,.18-.57.29.29,0,0,0-.48-.28,1.56,1.56,0,0,0-.36.53c-.1.2-.21.4-.29.61a5.16,5.16,0,0,0-.29,1.35,2.9,2.9,0,0,0,.79,2.51.27.27,0,0,0,.46-.19c0-.77-.22-1.51-.22-2.28A5,5,0,0,1,11,310.41Z"/></g><path class="cls-2" d="M100,311.25a20,20,0,0,1-3.49,7.81c-4.79.38-10.72,1.89-15.52,2.28a8.76,8.76,0,0,1-3.61-.2s0,0,0,0a11.79,11.79,0,0,1-8.83-10.41,4.27,4.27,0,0,1,.93-3.27,1.86,1.86,0,0,1,.57-.43c1.57-.79,3.45.61,4.17,2.22a21.13,21.13,0,0,1,3.2-15.81,8.79,8.79,0,0,1,2.84-2.85,4.14,4.14,0,0,1,3.89-.21,5.25,5.25,0,0,1,2.14,2.8,13.46,13.46,0,0,1-1.19,12c1.32-1.37,3.38-2.84,4.92-1.72s.76,3.61-.2,5.31a9.78,9.78,0,0,1,4.74-3.45,5.14,5.14,0,0,1,2.64,0,3.89,3.89,0,0,1,2.55,1.88A6,6,0,0,1,100,311.25Z"/><path class="cls-3" d="M99.75,307.23a3.89,3.89,0,0,0-2.55-1.88,6.76,6.76,0,0,1-2.63,5.47,6.44,6.44,0,0,1-7.59-.11c-.27-.21-.79-.2-.86.22a1.37,1.37,0,0,1-1.77.93,4.62,4.62,0,0,1-2.13-1.81.53.53,0,0,0-.73,0,8.93,8.93,0,0,1-3.5,3,3,3,0,0,1-3.48-.73.59.59,0,0,0-1,0c-.26.49-1,.15-1.4,0a5.07,5.07,0,0,1-1.52-1.36,5.48,5.48,0,0,1-1.1-3.39,4.27,4.27,0,0,0-.93,3.27,11.79,11.79,0,0,0,8.83,10.41s0,0,0,0a8.76,8.76,0,0,0,3.61.2c4.8-.39,10.73-1.9,15.52-2.28a20,20,0,0,0,3.49-7.81A6,6,0,0,0,99.75,307.23Z"/><path class="cls-6" d="M81.9,291.75A9.49,9.49,0,0,0,79,294.86a28.18,28.18,0,0,0-2.14,4.07,20.23,20.23,0,0,0-1.31,4.22c-.25,1.29-.56,3.11.16,4.3a.42.42,0,0,0,.72,0,6.39,6.39,0,0,0,.41-1.9c.1-.69.18-1.38.32-2.06a20.14,20.14,0,0,1,1.25-4,30.28,30.28,0,0,1,1.94-3.7A15.8,15.8,0,0,0,82.21,292,.21.21,0,0,0,81.9,291.75Z"/><path class="cls-2" d="M172.38,317.14a16.48,16.48,0,0,1-2.7,5.67c-10.54,2-21.55,1.58-31.33-2.81a9.51,9.51,0,0,1-5.45-8.2,6.42,6.42,0,0,1,0-.76,3.35,3.35,0,0,1,.45-1.68,2.84,2.84,0,0,1,3-1,8.38,8.38,0,0,1,2.95,1.52,20.29,20.29,0,0,1-1.71-7.79,5.77,5.77,0,0,1,.85-3.56c1.63-2.2,5.38-1.43,7,.76,1.43,1.91,1.7,4.39,1.76,6.8a2.58,2.58,0,0,1,3.18-1.34c1.57.63,2.35,2.37,2.83,4a12.78,12.78,0,0,1,2.42-7.94,4.28,4.28,0,0,1,2.23-1.78,3.59,3.59,0,0,1,3.35,1.4,8.65,8.65,0,0,1,1.37,3.56c.81,3.87,1.06,8-.63,11.61a11.68,11.68,0,0,1,7.77-2.1,3.19,3.19,0,0,1,2.59,1.26A3.33,3.33,0,0,1,172.38,317.14Z"/><path class="cls-3" d="M172.31,314.73a3.19,3.19,0,0,0-2.59-1.26,11.68,11.68,0,0,0-7.77,2.1c1.69-3.57,1.44-7.74.63-11.61a8.65,8.65,0,0,0-1.37-3.56,3.27,3.27,0,0,0-.3-.35,18.05,18.05,0,0,1,.18,4,16.58,16.58,0,0,1-1.38,5.58,6.93,6.93,0,0,1-3.17,3.65,3.67,3.67,0,0,1-4.14-.57.63.63,0,0,0-1.06.44c0,1.55-2,1-2.84.57a5.92,5.92,0,0,1-2.32-2.51c-.3-.58-1.05-.23-1.11.3a1.92,1.92,0,0,1-1.46,1.65,2.25,2.25,0,0,1-2-.78,1.57,1.57,0,0,0-1.89-.22c-.65.37-1.08,1-1.8,1.32a4.31,4.31,0,0,1-4.26-.92,6.12,6.12,0,0,1-.72-.72,9.51,9.51,0,0,0,5.45,8.2c9.78,4.39,20.79,4.79,31.33,2.81a16.48,16.48,0,0,0,2.7-5.67A3.33,3.33,0,0,0,172.31,314.73Z"/><g class="cls-4"><path class="cls-5" d="M141.57,308c-.15-.4-.31-.8-.44-1.21a10.94,10.94,0,0,1-.47-2.41,13.05,13.05,0,0,1,.05-2.42,9.06,9.06,0,0,1,.25-1.26c.08-.34.28-.75.16-1.09a.22.22,0,0,0-.26-.15c-.36.12-.53.5-.7.82a9.1,9.1,0,0,0-.51,1.31,8.84,8.84,0,0,0-.43,2.79,9.44,9.44,0,0,0,.42,2.74,3.75,3.75,0,0,0,1.54,2.35.4.4,0,0,0,.59-.34A4,4,0,0,0,141.57,308Z"/><path class="cls-5" d="M158.19,301.59c-.17.1-.35.16-.51.27a6,6,0,0,0-.47.41,5,5,0,0,0-.86.91,8.82,8.82,0,0,0-1.17,2.26,13.28,13.28,0,0,0-.65,2.7,8.49,8.49,0,0,0-.16,1.5,5.84,5.84,0,0,0,.27,1.5.42.42,0,0,0,.8,0,6.51,6.51,0,0,0,.43-1.29c.09-.45.12-.92.18-1.38a16.12,16.12,0,0,1,.54-2.48,12.27,12.27,0,0,1,.81-2,14.78,14.78,0,0,1,1.12-2C158.67,301.72,158.39,301.47,158.19,301.59Z"/></g><path class="cls-2" d="M319.21,357.46A279,279,0,0,1,246.39,346c-6.35-1.91-12.7-4.07-18.35-7.54a23.07,23.07,0,0,1-8.83-9.08,6.51,6.51,0,0,1,2.68-8.27,6,6,0,0,1,3.1-.67,6.49,6.49,0,0,1,5.27,3c-.86-3.07,1.73-6.48,4.89-6.84a7,7,0,0,1,7.2,5.06c1.18-2.48,2.42-5,4.5-6.83s5.24-2.63,7.61-1.25a7.4,7.4,0,0,1,2.64,3,13.44,13.44,0,0,1,1.11,9.54A6.61,6.61,0,0,1,270.58,328c.45-3,3.56-5.06,6.55-4.9a9.18,9.18,0,0,1,7.14,4.8c.42-2.6,1.11-5.28,2.85-7.25s4.82-3,7.11-1.7a7.6,7.6,0,0,1,2.88,3.64,23.41,23.41,0,0,1,2.12,9.54,4,4,0,0,1,7-2.58,6.47,6.47,0,0,1,1.34,3.17,15.66,15.66,0,0,1-.91,8.64c.8-1.88,2.08-3.91,4.06-3.81a4,4,0,0,1,3,2.29,7.92,7.92,0,0,1,.51,1.11,8.67,8.67,0,0,1-.34,6.86,7.46,7.46,0,0,1,4.86-1.33,4.42,4.42,0,0,1,3.78,3C323.26,352.41,320.51,354.82,319.21,357.46Z"/><path class="cls-3" d="M322.52,349.56a4.42,4.42,0,0,0-3.78-3,7.46,7.46,0,0,0-4.86,1.33,8.67,8.67,0,0,0,.34-6.86,10.24,10.24,0,0,1-4.54,2.81,9.58,9.58,0,0,1-8-1.38.7.7,0,0,0-1,.41c-.51,1.23-2.17,1.47-3.3,1.09-1.59-.53-2.68-2.06-3.63-3.36a.61.61,0,0,0-.69-.28,10,10,0,0,1-11.12-2.41,2.55,2.55,0,0,0-3.56-.79c-1.57.43-3.16-.59-4.36-1.48s-2.21-1.9-3.78-1.65a16.3,16.3,0,0,0-2.15.69,3.94,3.94,0,0,1-2.23.08,4.62,4.62,0,0,1-1.92-1.1,2.08,2.08,0,0,0-1.67-.59,20.17,20.17,0,0,1-2.19.75,4.27,4.27,0,0,1-1.84-.26,4,4,0,0,1-2.59-2.81.49.49,0,0,0-.82-.21,5.5,5.5,0,0,1-8.13-1.79.32.32,0,0,0-.42-.11,7.22,7.22,0,0,1-5.63,1,7.61,7.61,0,0,1-2.61-1.18,3.6,3.6,0,0,0-2.48-.82c-.89.14-1.65.73-2.52.94a5.28,5.28,0,0,1-2.62-.06,6.87,6.87,0,0,1-4.26-3.4,10,10,0,0,1-1.14-4.65,6,6,0,0,0-3.1.67,6.51,6.51,0,0,0-2.68,8.27,23.07,23.07,0,0,0,8.83,9.08c5.65,3.47,12,5.63,18.35,7.54a279,279,0,0,0,72.82,11.46C320.51,354.82,323.26,352.41,322.52,349.56Z"/><g class="cls-4"><path class="cls-5" d="M235.51,318.4c-.59-1.49-3,1.45-3.43,2a4.55,4.55,0,0,0-.78,2.1,2.65,2.65,0,0,0,.15,1.11,4.73,4.73,0,0,0,.23.45,1.16,1.16,0,0,0,.32.44.34.34,0,0,0,.58-.24c0-.19,0-.39,0-.58s.07-.3.1-.42c.08-.28.17-.55.25-.82a5.09,5.09,0,0,1,.6-1.3,9,9,0,0,1,.93-1.19,4.9,4.9,0,0,0,.91-1.18A.4.4,0,0,0,235.51,318.4Z"/><path class="cls-5" d="M251.24,315.53a2.76,2.76,0,0,0-.65.07,5.46,5.46,0,0,0-.78.35,6.59,6.59,0,0,0-1.36,1.05,13.55,13.55,0,0,0-2.21,2.74,12.07,12.07,0,0,0-2.14,6.53.44.44,0,0,0,.82.22c1-1.86,1.53-3.89,2.61-5.7a18.41,18.41,0,0,1,1.79-2.44,15.37,15.37,0,0,1,1.11-1.18,4.9,4.9,0,0,0,.9-.86l.18-.13A.36.36,0,0,0,251.24,315.53Z"/><path class="cls-5" d="M292.11,320.07c-1.13-.39-2.35.76-3,1.55a12.64,12.64,0,0,0-2,4,23.31,23.31,0,0,0-1,4.52q-.17,1.14-.27,2.31a6.91,6.91,0,0,0,0,2.4.7.7,0,0,0,1.34,0,7.21,7.21,0,0,0,.26-2.07c.05-.67.11-1.33.19-2a29.37,29.37,0,0,1,.8-4.14,16.52,16.52,0,0,1,1.42-3.71,7.76,7.76,0,0,1,1-1.41c.4-.44.93-.7,1.34-1.1A.19.19,0,0,0,292.11,320.07Z"/><path class="cls-5" d="M275.08,325c-.32.19-.64.37-.94.58a6.62,6.62,0,0,0-.88.79A6.14,6.14,0,0,0,272,328.3c-.58,1.34-1.19,3.39-.16,4.66a.42.42,0,0,0,.66-.08,6.27,6.27,0,0,0,.42-2,9.08,9.08,0,0,1,.48-2,18.63,18.63,0,0,1,.84-1.82,5.65,5.65,0,0,1,.53-.84,6.76,6.76,0,0,1,.67-.85A.26.26,0,0,0,275.08,325Z"/></g><path class="cls-7" d="M430.2,329.52a14,14,0,0,1-2,6c-1.21,2.32-5.09,3.6-7.12,5.26a37.9,37.9,0,0,1-6.21,4C401.4,352,386.16,355.19,371,357.26c-5,.68-10.87,3-15.24.54a13.45,13.45,0,0,1-6.08-7.58,13.13,13.13,0,0,1-.28-7.45,8.93,8.93,0,0,1,3-4.84,5.46,5.46,0,0,1,5.44-.82,8.24,8.24,0,0,1,3.32,3.56,7.07,7.07,0,0,1,2.62-7.95c2.55-1.59,6.47-.65,7.63,2.11-.83-2.05-1.68-4.23-1.3-6.41a7,7,0,0,1,5.58-5.32,10.23,10.23,0,0,1,7.74,1.9,11,11,0,0,1,4.62,7,4,4,0,0,1,7-3.21c0-3.41.32-7.44,3.23-9.22,2.66-1.63,6.21-.43,8.68,1.48a9.16,9.16,0,0,1,3.67,5.24c-.5-2.7-1-5.52-.25-8.16s3.11-5.06,5.85-4.88a4.72,4.72,0,0,1,1.77.49,6.5,6.5,0,0,1,2.91,3,13.48,13.48,0,0,1,1,6,25.58,25.58,0,0,1-.59,5.46c1-2.19,3.26-4.19,5.61-3.63C429.05,325.09,430.26,327.4,430.2,329.52Z"/><path class="cls-3" d="M430.2,329.52a14,14,0,0,1-2,6c-1.21,2.32-5.09,3.6-7.12,5.26a37.9,37.9,0,0,1-6.21,4C401.4,352,386.16,355.19,371,357.26c-5,.68-10.87,3-15.24.54a13.45,13.45,0,0,1-6.08-7.58,7.22,7.22,0,0,0,2.78.66,7.45,7.45,0,0,0,6.73-4,3.51,3.51,0,0,0,5.51-3.28,6.61,6.61,0,0,0,10.85-3.47,6.58,6.58,0,0,0,10.86-2.53,8,8,0,0,0,10.45-3.21,7.09,7.09,0,0,0,4.6,1.32,4.15,4.15,0,0,0,3.6-2.85,3.7,3.7,0,0,0,5.56-3.87c2.25.51,4.48-1.08,5.78-3,2.4-3.51,2.68-8.11,1.61-12.24a6.5,6.5,0,0,1,2.91,3,13.48,13.48,0,0,1,1,6,25.58,25.58,0,0,1-.59,5.46c1-2.19,3.26-4.19,5.61-3.63C429.05,325.09,430.26,327.4,430.2,329.52Z"/><g class="cls-8"><path class="cls-5" d="M376.86,324.37c-.91-.15-1.48,1-1.83,1.64a12.44,12.44,0,0,0-1.17,3.24,17.28,17.28,0,0,0-.35,3.59c0,.66,0,1.32.08,2a9,9,0,0,0,.28,2.06.78.78,0,0,0,1.52-.21,30,30,0,0,0-.39-3.25,20,20,0,0,1-.07-3.19,11.63,11.63,0,0,1,.52-2.92,4.5,4.5,0,0,1,1.47-2.51C377.07,324.7,377.07,324.4,376.86,324.37Z"/><path class="cls-5" d="M365.46,333a8.71,8.71,0,0,0-3.06,3.58,10.92,10.92,0,0,0-.91,2.55,7,7,0,0,0-.12,3c.22.92,1.49.64,1.56-.21s-.08-1.72-.06-2.57a9.61,9.61,0,0,1,.31-2.33,6.86,6.86,0,0,1,2.51-3.59C365.92,333.18,365.71,332.8,365.46,333Z"/><path class="cls-5" d="M355,338.45a12.5,12.5,0,0,0-3.23,4.68A10.23,10.23,0,0,0,351,346a3.4,3.4,0,0,0,.66,2.75.39.39,0,0,0,.63-.16,9,9,0,0,0,.22-2.59,11.63,11.63,0,0,1,.49-2.63,31.29,31.29,0,0,1,2.29-4.69A.21.21,0,0,0,355,338.45Z"/><path class="cls-5" d="M400.27,320.14c-.85.28-1.22,1.12-1.6,1.87a15.48,15.48,0,0,0-1.18,3.1,15.23,15.23,0,0,0-.49,5.32,6.17,6.17,0,0,0-4.25-.32,4,4,0,0,0-2.08,1.39,2.07,2.07,0,0,0-.34,2.35.34.34,0,0,0,.62-.08,4.57,4.57,0,0,1,.75-1.84,3.24,3.24,0,0,1,1.71-.88,4.69,4.69,0,0,1,4,.89.58.58,0,0,0,1-.41c0-1-.12-1.91-.1-2.87a20.39,20.39,0,0,1,.26-2.81,22.35,22.35,0,0,1,.63-2.69c.24-.81.51-2.17,1.3-2.62A.22.22,0,0,0,400.27,320.14Z"/><path class="cls-5" d="M414.47,314.89a9.15,9.15,0,0,0-2.65,4.34,16.7,16.7,0,0,0-.53,2.89q-.07.79-.09,1.59a4.85,4.85,0,0,0,.05.76,3.8,3.8,0,0,0,.23.59.48.48,0,0,0,.92,0c.06-.18.17-.31.22-.51a3.65,3.65,0,0,0,.08-.74c0-.44,0-.88,0-1.32a21.41,21.41,0,0,1,.23-2.77,9.18,9.18,0,0,1,1.89-4.45A.27.27,0,0,0,414.47,314.89Z"/></g><path class="cls-7" d="M494,323.33a32.57,32.57,0,0,0-4.74.66c-1.85.63-3.62,1.46-5.41,2.24a92.32,92.32,0,0,1-36.82,7.57c-1.32,0-3.19.07-4.13-.85-2.65-2.56-5.2-5.46-6.29-8.94a8.84,8.84,0,0,1-.25-.88c-.91-3.88.62-8.59,4.31-10.1a4.73,4.73,0,0,1,3.6-.1,5.85,5.85,0,0,1,2,1.58,13.39,13.39,0,0,1,2.65,4.73,5.15,5.15,0,0,1-.12-2.24,2.76,2.76,0,0,1,1.85-2.2,1.83,1.83,0,0,1,2.27,1.41,12,12,0,0,1-.09-5.67,5.27,5.27,0,0,1,3.82-3.87,3.6,3.6,0,0,1,3.89,2.13,3.08,3.08,0,0,1,2.3-2.78,4.72,4.72,0,0,1,4.33,1.47,14.19,14.19,0,0,1,2.53,4,18.94,18.94,0,0,1-.05-7,9.57,9.57,0,0,1,2.12-4.84,4.87,4.87,0,0,1,4.82-1.57,6,6,0,0,1,3.36,3.36c1.76,3.69,1.73,8,1.38,12a5.81,5.81,0,0,1,3.08-3.8c1.29-.75,2.91-1.28,4.26-.64l.14.08a3.85,3.85,0,0,1,1.82,3.11,10.86,10.86,0,0,1-.6,3.86,6.43,6.43,0,0,1,2.35-2.77,2.88,2.88,0,0,1,3.42.27,3.46,3.46,0,0,1,.81,1.85A8.85,8.85,0,0,1,494,323.33Z"/><path class="cls-3" d="M494,323.33a32.57,32.57,0,0,0-4.74.66c-1.85.63-3.62,1.46-5.41,2.24a92.32,92.32,0,0,1-36.82,7.57c-1.32,0-3.19.07-4.13-.85-2.65-2.56-5.2-5.46-6.29-8.94a5.52,5.52,0,0,0,2.85,1.47c1.62.29,3.64-.44,3.95-2.06A8.7,8.7,0,0,0,456,321.23a10.36,10.36,0,0,0,6.46,2,6.38,6.38,0,0,0,5.44-3.63,10.19,10.19,0,0,0,4,2,3.68,3.68,0,0,0,3.9-1.59c.16-.29.28-.62.57-.77s.8.05,1.17.24a4.73,4.73,0,0,0,3.78.35,3.24,3.24,0,0,0,2.13-3c1.32.56,2.69-.64,3.53-1.8,1.22-1.69,2.24-3.81,1.82-5.81a3.85,3.85,0,0,1,1.82,3.11,10.86,10.86,0,0,1-.6,3.86,6.43,6.43,0,0,1,2.35-2.77,2.88,2.88,0,0,1,3.42.27,3.46,3.46,0,0,1,.81,1.85A8.85,8.85,0,0,1,494,323.33Z"/><g class="cls-8"><path class="cls-5" d="M474.6,300.11c.19-.23-.12-.56-.34-.34a11.09,11.09,0,0,0-2.8,5.79,16.81,16.81,0,0,0-.23,3.82,8.35,8.35,0,0,0,.67,3.84.36.36,0,0,0,.64-.09,10.37,10.37,0,0,0-.11-3.51,23.15,23.15,0,0,1,0-3.63A10.55,10.55,0,0,1,474.6,300.11Z"/><path class="cls-5" d="M457.27,308.69a8.05,8.05,0,0,0-2,4.59,28.9,28.9,0,0,0-.25,2.94c0,1-.14,2.19.52,3a.44.44,0,0,0,.69-.09,4.9,4.9,0,0,0,.29-2.72c0-.91,0-1.82,0-2.74a7.2,7.2,0,0,1,1.19-4.6C457.86,308.8,457.51,308.43,457.27,308.69Z"/><path class="cls-5" d="M441.91,314.32a3.07,3.07,0,0,0-.9.55,5.87,5.87,0,0,0-.92.81,6.66,6.66,0,0,0-1.3,2.25,7.24,7.24,0,0,0-.48,2.48,5.2,5.2,0,0,0,.11,1.31,3.19,3.19,0,0,0,.5,1.2.44.44,0,0,0,.71-.19,5.76,5.76,0,0,0,0-1.1c0-.35,0-.71,0-1.07a10.36,10.36,0,0,1,.4-2.21,13,13,0,0,1,.87-2,8.65,8.65,0,0,1,.54-.93c.18-.29.44-.54.6-.84C442.18,314.45,442.06,314.27,441.91,314.32Z"/></g><path class="cls-7" d="M690.62,319.58c-1.08,4.79-7.39,4.65-11.41,4.71a36.6,36.6,0,0,1-17-3.86,6.82,6.82,0,0,1-1.93-1.32,6.28,6.28,0,0,1-1.34-3.06c-.07-.34-.13-.67-.17-1a6.94,6.94,0,0,1,0-2.53,3.8,3.8,0,0,1,2.1-2.73,2.48,2.48,0,0,1,3.09,1,45.85,45.85,0,0,1-.58-7c0-1.69.21-3.64,1.63-4.56,1.62-1.06,3.93,0,4.91,1.66a10.56,10.56,0,0,1,.94,5.52,3.31,3.31,0,0,1,1.48-2.75,2.86,2.86,0,0,1,3.18.13,4.12,4.12,0,0,1,1.26,2.19,9.8,9.8,0,0,1,0,5.1c.46-1.93,3-2.84,4.78-1.9l.1.07a4.5,4.5,0,0,1,1.84,5.07c1.16-1.09,2.67-2.07,4.24-1.81C691.06,313,691.19,317.07,690.62,319.58Z"/><path class="cls-3" d="M690.62,319.58c-1.08,4.79-7.39,4.65-11.41,4.71a36.6,36.6,0,0,1-17-3.86,6.82,6.82,0,0,1-1.93-1.32,6.28,6.28,0,0,1-1.34-3.06c-.07-.34-.13-.67-.17-1a2,2,0,0,0,1.31-1.22,13.38,13.38,0,0,1,1.06,1.07,3.25,3.25,0,0,0,5-.67,3.21,3.21,0,0,0,2.45,1.39,2.27,2.27,0,0,0,2.22-1.56.26.26,0,0,1,0-.12c.1-.09.25,0,.34.1a4.46,4.46,0,0,0,2.54,1.43,2.82,2.82,0,0,0,2.65-1,.35.35,0,0,1,.16-.16.44.44,0,0,1,.35.06,3.67,3.67,0,0,0,2.64.27,3.27,3.27,0,0,0,2-1.68,4.36,4.36,0,0,0,.38-1.86,6.87,6.87,0,0,0-.21-1.91,4.5,4.5,0,0,1,1.84,5.07c1.16-1.09,2.67-2.07,4.24-1.81C691.06,313,691.19,317.07,690.62,319.58Z"/><g class="cls-8"><path class="cls-5" d="M674.22,303.91a3.07,3.07,0,0,0-.6.22,2.12,2.12,0,0,0-.57.41,4.62,4.62,0,0,0-.8,1.06,3.24,3.24,0,0,0-.4,2.62.27.27,0,0,0,.52,0c.29-.72.47-1.43.81-2.08a8.1,8.1,0,0,1,.57-.9c.13-.16.25-.33.36-.49s.2-.34.32-.49S674.45,303.83,674.22,303.91Z"/><path class="cls-5" d="M666.29,299.81l0-.07a.29.29,0,0,0-.3-.12c-.38.07-.53.49-.67.81a10.29,10.29,0,0,0-.53,1.5,17,17,0,0,0-.57,3.39,23.78,23.78,0,0,0,0,3.48c.06.81.11,1.66.23,2.48l-.22-.15a2.54,2.54,0,0,0-1.79-.29,2.87,2.87,0,0,0-1.48.75,1.83,1.83,0,0,0-.51.78.57.57,0,0,0,0,.22v0a.5.5,0,0,1,0,.13.63.63,0,0,0,.13.56.42.42,0,0,0,.41.11.54.54,0,0,0,.32-.21l.06-.06h0l0,0,.12-.09.13-.12a.6.6,0,0,0,.08-.08l0,0a.52.52,0,0,0,.11-.1l.11-.1,0,0,.1-.06a1.35,1.35,0,0,1,.26-.15l.08,0,.1,0,.29-.07h.71l.26.05c.22.05.34.11.57.18a1.66,1.66,0,0,0,.42.12.65.65,0,0,0,1.14-.4c0-1-.26-2-.37-3s-.21-2-.25-3.05a16,16,0,0,1,.16-3.09,14.57,14.57,0,0,1,.31-1.46c.06-.2.12-.41.19-.61a2.89,2.89,0,0,1,.27-.78A.22.22,0,0,0,666.29,299.81Z"/></g><path class="cls-7" d="M744.33,321.49a8.16,8.16,0,0,1-1.68,2.75c-5.64,1.1-13.16,1.66-18.27-1a9.14,9.14,0,0,1-3.34-3,9.32,9.32,0,0,1-1.59-6.06,1.74,1.74,0,0,1,.26-.87,1.56,1.56,0,0,1,1-.55,4.43,4.43,0,0,1,5.06,3.2,13.47,13.47,0,0,1,1-5.78c.66-1.58,1.92-3.19,3.63-3.17,1.87,0,3.09,2,3.67,3.77a8.07,8.07,0,0,1,.25,5.08,5,5,0,0,1,1.31-1.66,2.84,2.84,0,0,1,2.81-.49l.07,0a2.91,2.91,0,0,1,1.5,2.46,6.42,6.42,0,0,1-.71,3c1.23-1,3.06-1.65,4.28-.67A2.81,2.81,0,0,1,744.33,321.49Z"/><path class="cls-3" d="M744.33,321.49a8.16,8.16,0,0,1-1.68,2.75c-5.64,1.1-13.16,1.66-18.27-1a9.14,9.14,0,0,1-3.34-3,3,3,0,0,0,.73.1,2.27,2.27,0,0,0,2.26-1.58A7.51,7.51,0,0,0,726.2,320a2.51,2.51,0,0,0,2,.11,3.07,3.07,0,0,0,1.29-1.67,3.88,3.88,0,0,0,1.42,1.22,2,2,0,0,0,1.82,0,1.41,1.41,0,0,0,.71-1.59,3.28,3.28,0,0,0,3.94-.67,4.9,4.9,0,0,0,1.19-3.66,2.91,2.91,0,0,1,1.5,2.46,6.42,6.42,0,0,1-.71,3c1.23-1,3.06-1.65,4.28-.67A2.81,2.81,0,0,1,744.33,321.49Z"/><g class="cls-8"><path class="cls-5" d="M731.08,307.83c-.7-.13-1.19.57-1.55,1.06a19.57,19.57,0,0,0-1.32,2.07,17.24,17.24,0,0,0-1,2.18,8.42,8.42,0,0,0-.36,1.21c-.09.39-.23.91,0,1.26a.48.48,0,0,0,.63.16,1.27,1.27,0,0,0,.48-.91c.08-.37.16-.74.25-1.11a17.06,17.06,0,0,1,.63-2.11,12.34,12.34,0,0,1,1-1.92,6.48,6.48,0,0,1,1.33-1.57A.19.19,0,0,0,731.08,307.83Z"/><path class="cls-5" d="M722.21,317.39c0-.15,0-.31-.07-.46a5.9,5.9,0,0,1,0-.84,8,8,0,0,1,.29-1.75.24.24,0,0,0-.39-.23,3.71,3.71,0,0,0-.71,3.39,2.18,2.18,0,0,0,.62,1.07.27.27,0,0,0,.45-.19,4.5,4.5,0,0,0-.11-.64C722.25,317.62,722.23,317.51,722.21,317.39Z"/></g><path class="cls-9" d="M73,284c-.39,1.14-.8,2.27-1.21,3.41-1.65,4.52-3.41,9-5.14,13.49-1.09,2.81-2.24,5.59-3.42,8.36l-.09.21c0,.68-.1,1.36-.1,2,0,1.57,0,3.14,0,4.71,0,3.21.09,6.41.26,9.61a1.42,1.42,0,0,1-1,1.37c-.58.11-1.15.21-1.73.27a25.8,25.8,0,0,1-6.21.1c-.47.51-1.56.42-1.68-.38-.06-.44-.13-.89-.2-1.33a.77.77,0,0,1,0-.15c-.2-1.23-.39-2.45-.48-3.7-.13-1.72-.12-3.46-.19-5.18-.15-3.36-.31-6.73-.37-10.09,0-1,0-2.06-.06-3.09-.82-1.76-1.59-3.56-2.36-5.31l-.66-1.5c-1.21-2.67-2.35-5.35-3.54-8-.81-1.81-1.63-3.6-2.5-5.38a.42.42,0,0,1,.72-.42c1.34,2.17,2.71,4.32,4,6.5s2.5,4.09,3.66,6.19l.49.88v-.21c0-1.72,0-3.45.05-5.17,0-.22,0-.45,0-.68a32.4,32.4,0,0,1,.16-3.27s0,0,0-.05c-.07-.53-.1-1.06-.14-1.59a1,1,0,0,1,.72-1c.44-.1.88-.19,1.32-.25a2.83,2.83,0,0,1,1.82,0,1.49,1.49,0,0,1,.69.9c0,.05,0,.1,0,.14l0,0a1.23,1.23,0,0,1,.16.5.49.49,0,0,1,.1.19c.41,1.69.73,3.4,1,5.12s.58,3.25.92,4.87c.18.88.35,1.76.51,2.65s.28,1.56.42,2.34c.14-.69.29-1.37.43-2.06.29-1.38.58-2.77.86-4.16s.55-2.51.91-3.77a27.48,27.48,0,0,1,1.95-5.06l.08-.1c.14-.35.29-.71.45-1.06a.51.51,0,0,1,.93.12,27.55,27.55,0,0,1,.19,5.37c-.07,1.34-.21,2.68-.35,4-.27,2.49-.58,5-.87,7.45.29-.64.57-1.29.87-1.93,1.79-3.85,3.57-7.72,5.44-11.53.78-1.59,1.57-3.18,2.39-4.75A.41.41,0,0,1,73,284Z"/><path class="cls-10" d="M77.23,254.79a1.74,1.74,0,0,1,2.29.73,3.39,3.39,0,0,1-.28,3,7.22,7.22,0,0,1-1.43,1.87,4.58,4.58,0,0,1,4.14.75c1.76,1.41,2.44,3.79,2.57,6.05a23,23,0,0,1-.67,6.44,16.43,16.43,0,0,1-2.16,5.51,18.43,18.43,0,0,1-4,4.07,48.92,48.92,0,0,1-5.94,4.1c-.63.36-1.27.71-1.92,1a28.76,28.76,0,0,1-5.09,2,22.09,22.09,0,0,1-3.6.73c-.39.06-.79.09-1.19.12a24.81,24.81,0,0,1-2.86,0,38,38,0,0,1-5.9-.81l-.12,0c-1.37-.29-2.74-.61-4.09-1-.77-.21-1.53-.45-2.27-.7a34.7,34.7,0,0,1-5.79-2.54,24.27,24.27,0,0,1-7.49-6.35,19.2,19.2,0,0,1-1.64-2.53,18.65,18.65,0,0,1-2.07-11,7.34,7.34,0,0,1,1.87-4.49,3.41,3.41,0,0,1,4.49-.37c-3.11-3.25-6.21-6.92-7.19-11.32-.53-2.39-.07-5.35,2.09-6.5s4.55,0,6.35,1.43a2.09,2.09,0,0,1,.44-3.1,2.71,2.71,0,0,1,3.21.48,17.63,17.63,0,0,1-4-6.81,9.78,9.78,0,0,1-.31-5.78,5.32,5.32,0,0,1,4-3.83c2-.28,3.85.83,5.53,1.9-2.55-1.68-4.16-4.46-5.39-7.27-1-2.2-1.76-4.7-.92-7a5.24,5.24,0,0,1,8.62-1.89c-1.2-1.33-1.31-3.37-1-5.14a3.08,3.08,0,0,1,.73-1.63,1.61,1.61,0,0,1,1.66-.47c-2.4-2.19-4.25-5.37-3.66-8.55a2.16,2.16,0,0,1,.85-1.55,2.14,2.14,0,0,1,1.37-.21,5.87,5.87,0,0,1,3,1.26c-2.18-5.25-1.27-11.66,1.41-16.67a6.21,6.21,0,0,1,2.65-2.89,4.75,4.75,0,0,1,5.16,1.26,10.24,10.24,0,0,1,2.42,5,25.78,25.78,0,0,1,.53,8.17,5.28,5.28,0,0,1,1.55-2,1.9,1.9,0,0,1,2.35.07,2.45,2.45,0,0,1,.56,1.22,11,11,0,0,1,0,4.88c1.57-1,3.55-1.72,5.25-1,1.89.83,2.65,3.15,2.64,5.21a11.93,11.93,0,0,1-5.13,9.63,2.09,2.09,0,0,1,2.13,0,2.91,2.91,0,0,1,1,1.1,5.09,5.09,0,0,1-.91,5.92c1.16-1,2.94-.26,3.87,1a6.83,6.83,0,0,1,.78,4.92,20.49,20.49,0,0,1-2.23,6.82,2.52,2.52,0,0,1,2.81-.8,1.62,1.62,0,0,1,.7,2,5.09,5.09,0,0,1,5.24-.71,6.3,6.3,0,0,1,2.35,1.81,8.11,8.11,0,0,1,1.5,2.9,13.65,13.65,0,0,1,.06,6.23A27.1,27.1,0,0,1,77.23,254.79Z"/><path class="cls-10" d="M79.68,214.92c-.08-.2-.19-.41-.4-.46a.55.55,0,0,0-.35.08,2.56,2.56,0,0,0-1.09,1.87,10,10,0,0,0,.83,6.34c.18.35.43.74.82.78a1.18,1.18,0,0,0,.92-.5,11.81,11.81,0,0,0,2.1-3.09,6,6,0,0,0,.6-2,1.37,1.37,0,0,0-.39-1.24,1.14,1.14,0,0,0-.9-.13c-.48.12-1.5,1.4-1.83,1.2s0-.93,0-1.21A4.62,4.62,0,0,0,79.68,214.92Z"/><path class="cls-10" d="M64,181.71a10.41,10.41,0,0,1,.08-4.93,3.68,3.68,0,0,1,1-1.87.59.59,0,0,1,.41-.19c.23,0,.4.23.5.44a4.84,4.84,0,0,1,.31,2.11,14.22,14.22,0,0,1-.52,4.16c-.13.42-.43,1.61-.89,1.79S64.13,182.13,64,181.71Z"/><path class="cls-10" d="M38.06,198.16a3.13,3.13,0,0,0-1.19-1.28,1.38,1.38,0,0,0-1.63.19,1.88,1.88,0,0,0-.35,1.31,7.62,7.62,0,0,0,1.23,3.93,2.13,2.13,0,0,0-2.92.73,1.46,1.46,0,0,0-.17,1c.16.7.95,1.06,1.66,1.18,1.31.23,4.14,0,4.85-1.45.36-.74-.06-1.72-.26-2.45A13.34,13.34,0,0,0,38.06,198.16Z"/><path class="cls-10" d="M28.93,234.49c-.34-.44-.86-.9-1.4-.74s-.71.86-.7,1.43a5.79,5.79,0,0,0,2.08,4.28c1.73,1.46,1.86-.84,1.48-2.11A9.33,9.33,0,0,0,28.93,234.49Z"/><g class="cls-11"><path class="cls-12" d="M86.17,239.68a13.65,13.65,0,0,0-.06-6.23,8.11,8.11,0,0,0-1.5-2.9,28.78,28.78,0,0,1-.78,4.48,28.05,28.05,0,0,1-3.18,7.48,26.36,26.36,0,0,1-5.21,6.22c-.91.8-1.87,1.38-1.94,2.69a31.87,31.87,0,0,1-.34,4.58A7.19,7.19,0,0,1,71,260.16a4.32,4.32,0,0,1-4.12,1,.39.39,0,0,0-.49.37A5.41,5.41,0,0,1,64,266a5.47,5.47,0,0,1-5.37.3.37.37,0,0,0-.54.42c.25,1.09.37,2.53-.48,3.42a1.66,1.66,0,0,1-2.49,0,.35.35,0,0,0-.64.08c-.56,1.71-1.54,3.54-3.29,4.27A3.35,3.35,0,0,1,47,273.35c-.2-.35-.68-.1-.62.26a3.19,3.19,0,0,1-1.61,3.19,5.57,5.57,0,0,1-4,.46,10.46,10.46,0,0,1-6.24-4c-.19-.26-.74-.23-.69.18a7.31,7.31,0,0,1-2.45,6.43,24.27,24.27,0,0,0,7.49,6.35,34.7,34.7,0,0,0,5.79,2.54c1.19,2.66,2.33,5.34,3.54,8l.66,1.5a14,14,0,0,1,2.4-.49,17.91,17.91,0,0,1,7.21,1c-.16-.89-.33-1.77-.51-2.65-.34-1.62-.62-3.25-.92-4.87a24.81,24.81,0,0,0,2.86,0c.4,0,.8-.06,1.19-.12-.36,1.26-.66,2.53-.91,3.77s-.57,2.78-.86,4.16c1,.34,1.93.71,2.88,1.07a55.18,55.18,0,0,0-2.54,11.51,53.46,53.46,0,0,0,.19,12.06c.16,1.22.34,2.46.58,3.68.58-.06,1.15-.16,1.73-.27a1.42,1.42,0,0,0,1-1.37c-.17-3.2-.28-6.4-.26-9.61,0-1.57,0-3.14,0-4.71,0-.63.06-1.31.1-2l.09-.21c1.18-2.77,2.33-5.55,3.42-8.36,1.73-4.49,3.49-9,5.14-13.49a48.92,48.92,0,0,0,5.94-4.1,18.43,18.43,0,0,0,4-4.07,16.43,16.43,0,0,0,2.16-5.51,23,23,0,0,0,.67-6.44c-.13-2.26-.81-4.64-2.57-6.05a4.58,4.58,0,0,0-4.14-.75,7.22,7.22,0,0,0,1.43-1.87,3.39,3.39,0,0,0,.28-3,1.74,1.74,0,0,0-2.29-.73A27.1,27.1,0,0,0,86.17,239.68Zm-35,51.44c0,1.72-.07,3.45-.05,5.17v.21l-.49-.88c-1.16-2.1-2.39-4.15-3.66-6.19,1.35.38,2.72.7,4.09,1l.12,0C51.18,290.67,51.17,290.9,51.17,291.12Zm13.21,8.8c-.3.64-.58,1.29-.87,1.93.29-2.48.6-5,.87-7.45.14-1.33.28-2.67.35-4a28.76,28.76,0,0,0,5.09-2C68,292.2,66.17,296.07,64.38,299.92Z"/><path class="cls-12" d="M45.09,256.89a10.91,10.91,0,0,1,1-4,.55.55,0,0,1,.28-.33c.24-.08.45.18.56.42.86,1.88.49,4.09-.13,6.07-.21.68-.56,1.45-1.26,1.6s-1.37-.44-1.82-1a7,7,0,0,1-1.7-4.38,1.08,1.08,0,0,1,.14-.56.78.78,0,0,1,.86-.29,1.67,1.67,0,0,1,.81.52A4.52,4.52,0,0,1,45,257.66"/><path class="cls-12" d="M62.14,236.28a4,4,0,0,1,.68-3c.4-.49,1.15-.83,1.65-.44a1.55,1.55,0,0,1,.48,1c.34,1.54.66,3.08,1,4.64A7.57,7.57,0,0,1,67.85,233c.58-.56,1.51-1,2.18-.52a2.06,2.06,0,0,1,.64,1.72,8.79,8.79,0,0,1-1.06,4.62C66.91,243.47,62.66,240.72,62.14,236.28Z"/><path class="cls-12" d="M54.47,208.4a1.37,1.37,0,0,0-.8-.8,1,1,0,0,0-.94.32,2.43,2.43,0,0,0-.49,2.13,5.53,5.53,0,0,0,2.62,3.81,1.37,1.37,0,0,0,.77.24c.53,0,.86-.58,1.07-1.07A16,16,0,0,0,58,205.67a.81.81,0,0,0-.13-.47c-.21-.25-.62-.14-.88,0-1.09.73-1.34,2.19-1.5,3.49-.08.67,0,1.59-.5,2A6.78,6.78,0,0,0,54.47,208.4Z"/></g><g class="cls-13"><path class="cls-5" d="M53.12,181.73a13.56,13.56,0,0,1,.92-2.39,19.18,19.18,0,0,0,1.21-2.28.31.31,0,0,0-.44-.34,5.58,5.58,0,0,0-1.55,1.92,20.09,20.09,0,0,0-1.17,2.43,18.41,18.41,0,0,0-1.25,5.33,38.9,38.9,0,0,0,.68,10.49,3.67,3.67,0,0,0-1.36-.38,2.65,2.65,0,0,0-2.71,1.59,6.55,6.55,0,0,0,.19,3.74,12.71,12.71,0,0,0,.7,1.9,7.91,7.91,0,0,0,.42.82,2,2,0,0,0-.51.22,2.94,2.94,0,0,0-1.31,2.1,8.71,8.71,0,0,0,0,2.79,6.55,6.55,0,0,0,.32,1.23,6.67,6.67,0,0,0,.29.74,1.15,1.15,0,0,0,.58.57.67.67,0,0,0,1-.4,1.28,1.28,0,0,0,0-.7c-.05-.17-.14-.32-.2-.48a9.82,9.82,0,0,1-.33-1,6.65,6.65,0,0,1-.19-2.13A1.94,1.94,0,0,1,49,206c.22-.16.49-.17.72-.31s.47-.22.47-.42v0a.57.57,0,0,0,.31-.53,9.55,9.55,0,0,0-1-2.52,9.17,9.17,0,0,1-.57-2.68c0-.81.23-1.44,1.15-1.37a3.62,3.62,0,0,1,2,1.2.83.83,0,0,0,1.38-.8,53.67,53.67,0,0,1-1.19-11.85A22.17,22.17,0,0,1,53.12,181.73Z"/><path class="cls-5" d="M47.48,228.56c-1.58-2.5-3.37-4.89-4.13-7.81a9.2,9.2,0,0,1-.19-4.14,2.86,2.86,0,0,1,.92-1.75,1.88,1.88,0,0,1,1.9-.15c.25.11.58-.14.41-.41-.85-1.32-2.68-.76-3.56.23a6.6,6.6,0,0,0-1.11,4.76,18.58,18.58,0,0,0,3.53,8.53,5.35,5.35,0,0,0-5.59,3.89,11.08,11.08,0,0,0,.4,5.76,24.69,24.69,0,0,0,1,2.95,8.44,8.44,0,0,0,1.51,2.68.6.6,0,0,0,1-.58,13.68,13.68,0,0,0-1-2.33c-.35-.81-.65-1.63-.93-2.47a12.66,12.66,0,0,1-.85-4.83A4,4,0,0,1,43,229.56a3.85,3.85,0,0,1,3.57-.05C47.12,229.83,47.87,229.17,47.48,228.56Z"/><path class="cls-5" d="M39.43,246.83a.47.47,0,0,0-.09-.72,1.8,1.8,0,0,0-2.17.94,3.26,3.26,0,0,0-.49,1.75,3.13,3.13,0,0,0-2.79.21,3.61,3.61,0,0,0-1.33,4.23,20.57,20.57,0,0,0,2,4.77A21.58,21.58,0,0,0,36,260.16,4.61,4.61,0,0,0,37.86,262a.62.62,0,0,0,.76-.76,4.22,4.22,0,0,0-1-1.55,19.42,19.42,0,0,1-1.2-1.66,25.61,25.61,0,0,1-1.92-3.48c-.5-1.08-1.26-2.7-.52-3.82a1.86,1.86,0,0,1,3-.19c.36.39,1.2.11,1.13-.47a4,4,0,0,1,.11-2.13C38.43,247.38,39,247.19,39.43,246.83Z"/></g><path class="cls-9" d="M124.24,291.77a11.85,11.85,0,0,1-.49,2.58c-.3,1-.69,2.08-1,3.06-.62,1.95-1.22,3.89-2,5.8-.52,1.31-1.08,2.61-1.65,3.91.13,2.24.26,4.48.36,6.72.11,2.56.61,5.46-.36,7.89-.27.68-1.27,1.09-1.79.5a1,1,0,0,1-.15-.24,7.85,7.85,0,0,1-.46-1.28,9.27,9.27,0,0,1-1.36,4.13.88.88,0,0,1-1.59-.2c-1.08-2.78-.23-6.2-.05-9.09,0-.61.06-1.23.09-1.85a.93.93,0,0,1-.14-.67c.06-.31.14-.63.22-.94.08-1.8.13-3.61.15-5.41v-.6a15.21,15.21,0,0,1-1.54-3.07c-.56-1.42-1.11-2.85-1.63-4.28l-.25-.7c-.39-1.13-.77-2.27-1.09-3.41,0-.13-.08-.25-.11-.38-.18-.67-.4-1.34-.55-2s-.21-1.09.26-1.49a.39.39,0,0,1,.61.08,17.43,17.43,0,0,1,.84,1.8c.31.63.67,1.24,1,1.87.11.22.22.45.32.67.52,1.05,1,2.11,1.48,3.18l.09.22c.2.45.39.89.58,1.34,0-.42,0-.85,0-1.27s0-.63,0-.95c0-.74.07-1.49.14-2.23s.17-1.48.29-2.2c.24-1.43.68-2.75,1-4.15a.6.6,0,0,1,1.17.16v.05a.54.54,0,0,1,.05.11,40.07,40.07,0,0,1,1.19,6c.1.7.2,1.4.3,2.08.17,1.07.29,2.14.4,3.21.69-1.39,1.41-2.76,2.12-4.15.27-.53.53-1.09.79-1.66a17.45,17.45,0,0,1,2-3.43C123.76,291.2,124.26,291.44,124.24,291.77Z"/><path class="cls-10" d="M143.2,275.44c-.47,3.72-2.68,7-5.24,9.74a32.85,32.85,0,0,1-13.5,8.95l-.71.22c-.72.22-1.45.41-2.19.56a24.53,24.53,0,0,1-3.61.52,23.35,23.35,0,0,1-3.74,0,20.31,20.31,0,0,1-2.33-.29,21.17,21.17,0,0,1-2.36-.53c-.38-.11-.76-.22-1.13-.35A33.28,33.28,0,0,1,98.05,288c-.35-.29-.7-.59-1-.9a20.37,20.37,0,0,1-3.53-3.89,14.34,14.34,0,0,1-2.27-9.6,4,4,0,0,1,.65-1.94,3,3,0,0,1,2.53-1.05,19.75,19.75,0,0,1-4.75-3.5c-.47-.47-.93-1.12-.69-1.74a1.54,1.54,0,0,1,.67-.69,5.06,5.06,0,0,1,5-.15A30.36,30.36,0,0,1,89.13,254c-.79-2.75-1-6.13,1.09-8.06a5.79,5.79,0,0,1,5.71-.9,13.1,13.1,0,0,1,4.93,3.45,9.81,9.81,0,0,1-1.39-8.83c.53-1.57,1.77-3.16,3.42-3.13s2.8,1.61,3.42,3.12a8.55,8.55,0,0,1,0-3.7,2.18,2.18,0,0,1,.43-1,1.73,1.73,0,0,1,2.16-.13,4.9,4.9,0,0,1,1.5,1.78,43.6,43.6,0,0,1,1.12-13.85c.45-1.8,1.14-3.73,2.74-4.65a4.8,4.8,0,0,1,5.08.53,9.73,9.73,0,0,1,3,4.36,20.41,20.41,0,0,1,.28,14.26,2.78,2.78,0,0,1,4-.72,3.89,3.89,0,0,1,1.21,3.64,5.2,5.2,0,0,1,9.78-.19,6.77,6.77,0,0,1-.43,5.32,15.25,15.25,0,0,1-3.41,4.26c.87-.59,2.2-1,2.86-.2a1.94,1.94,0,0,1-.39,2.39,8.44,8.44,0,0,0-1.68,2c1.77-1.71,5-1.08,6.49.84l.1.12c1.5,2,1.5,4.83.71,7.21a13.11,13.11,0,0,1-6.9,7.86,7.17,7.17,0,0,1,4.7-.26,5.11,5.11,0,0,1,3.35,3.18A6.4,6.4,0,0,1,143.2,275.44Z"/><path class="cls-10" d="M132.72,231a10.69,10.69,0,0,0,3.47-2.4,3.1,3.1,0,0,0,.95-1.62.72.72,0,0,0-.12-.56.61.61,0,0,0-.31-.18,2.23,2.23,0,0,0-1.73.47,13.79,13.79,0,0,0-3.06,2.69,8.11,8.11,0,0,0,1.67-5.81c-.05-.4-.17-.86-.54-1s-.86.15-1.16.49a7.83,7.83,0,0,0-1.69,3.41,23.09,23.09,0,0,0-.49,3.81c-.05.65-.18,1.53.69,1.53A7.31,7.31,0,0,0,132.72,231Z"/><path class="cls-10" d="M148.6,263.57a1.35,1.35,0,0,0,.57-1,1,1,0,0,0-.76-.77,2.21,2.21,0,0,0-1.13.14,5.74,5.74,0,0,0-2.53,1.63c-.3.36-1.06,1.16-1,1.68s1,.31,1.39.19A9,9,0,0,0,148.6,263.57Z"/><path class="cls-10" d="M96.92,237.4a1.64,1.64,0,0,0-.87-1.26,1.09,1.09,0,0,0-1.18.49,2.2,2.2,0,0,0-.29,1.33,4.69,4.69,0,0,0,1.79,3.48,3.24,3.24,0,0,0-1.83.64c-.28.2-.54.58-.35.86a.58.58,0,0,0,.2.18,2.09,2.09,0,0,0,2.24-.05,2.19,2.19,0,0,0,.77-2.32C97.18,239.64,97.2,238.51,96.92,237.4Z"/><g class="cls-11"><path class="cls-12" d="M143,272.65a5.11,5.11,0,0,0-3.35-3.18,7.17,7.17,0,0,0-4.7.26,13.11,13.11,0,0,0,6.9-7.86c.79-2.38.79-5.2-.71-7.21l-.1-.12a27.21,27.21,0,0,1-3.65,8.08c-2,3.17-4.77,5.69-8.67,5.82a.41.41,0,0,0-.4.41c.26,2.77.24,6.06-1.92,8.13a4,4,0,0,1-3.58,1.11,9.5,9.5,0,0,1-3.81-2.26.38.38,0,0,0-.65.26c.07,2.43-.12,5.53-2.47,6.92s-4.65-.84-6.17-2.5a.38.38,0,0,0-.64.17c-.28,1.36-.77,3.39-2.54,3.33a.38.38,0,0,0-.35.27c-.15,1-1.52.85-2.22.62a7.2,7.2,0,0,1-2.93-1.89.35.35,0,0,0-.59.25c.16,1.92-1.48,3.36-3.21,3.81l-.27.06c.34.31.69.61,1,.9a33.28,33.28,0,0,0,10.34,6.24c.37.13.75.24,1.13.35.32,1.14.7,2.28,1.09,3.41.93.21,1.89.38,2.84.52l-.09-.22c-.46-1.07-1-2.13-1.48-3.18a20.31,20.31,0,0,0,2.33.29c-.07.74-.11,1.49-.14,2.23,0,.32,0,.63,0,.95.71.1,1.42.18,2.13.26,0,.43.11.87.16,1.3s.15,1.12.22,1.69c.13,1.13.24,2.26.35,3.39q.33,3.35.47,6.7t.07,6.71c0,1.14-.06,2.28-.12,3.41,0,.05,0,.1,0,.15.52.59,1.52.18,1.79-.5,1-2.43.47-5.33.36-7.89-.1-2.24-.23-4.48-.36-6.72.57-1.3,1.13-2.6,1.65-3.91.77-1.91,1.37-3.85,2-5.8.31-1,.7-2,1-3.06l.71-.22a32.85,32.85,0,0,0,13.5-8.95c2.56-2.74,4.77-6,5.24-9.74A6.4,6.4,0,0,0,143,272.65Zm-22.27,23.92c-.71,1.39-1.43,2.76-2.12,4.15-.11-1.07-.23-2.14-.4-3.21-.1-.68-.2-1.38-.3-2.08a24.53,24.53,0,0,0,3.61-.52C121.3,295.48,121,296,120.77,296.57Z"/><path class="cls-12" d="M126.55,258.05a11.77,11.77,0,0,1,.35-2.44,3.86,3.86,0,0,1,1.33-2,.56.56,0,0,1,.35-.13c.24,0,.37.3.42.54.44,1.89-.29,7.27-3.11,4.52-.82-.8-1.58-2.6-.78-3.67C126.34,253.17,126.54,257.29,126.55,258.05Z"/><path class="cls-12" d="M106.58,265.28a4.55,4.55,0,0,1-.9-1.78,2,2,0,0,1,.49-1.86.49.49,0,0,1,.3-.16c.19,0,.34.16.45.32.94,1.3,1.42,2.92,2.51,4.09a11.32,11.32,0,0,1-.22-2.72,4.24,4.24,0,0,1,.94-2.51c.19-.21.47-.4.73-.29a.75.75,0,0,1,.25.25,6.66,6.66,0,0,1,.12,6.28C109.83,269,107.52,266.58,106.58,265.28Z"/><path class="cls-12" d="M113.59,245.19A6.45,6.45,0,0,0,114,243a5.68,5.68,0,0,0-.18-1.88,1.11,1.11,0,0,0-.69-.82c-.48-.12-.91.32-1.13.76a6.43,6.43,0,0,0-.26,3.35l-1.48-1.07c-.83-.6-2.82-1.54-2.93.18a3.12,3.12,0,0,0,1.14,2.12C110,246.89,112.64,247.44,113.59,245.19Z"/></g><path class="cls-14" d="M115.75,220.33c-2.08,2.15-2.56,5.4-3,8.23a41.8,41.8,0,0,0-.3,8.8,4.08,4.08,0,0,0-3.56.09,3.52,3.52,0,0,0-1.74,2.52,3.08,3.08,0,0,0-1.71.17,4,4,0,0,0-2.23,2.47,11.54,11.54,0,0,0-.46,3.88,22.6,22.6,0,0,0,.29,3.29,7.59,7.59,0,0,0-1.71-.47,5.15,5.15,0,0,0-2.86.17c-1.67.77-2,3.29-2.15,4.9-.34,3.72.84,7.41,2.3,10.81A3.73,3.73,0,0,0,95.33,268c-.63,2.49.82,4.91,2.42,6.69.51.55,1.49-.19,1-.81-1-1.47-2.26-2.93-2.18-4.82.06-1.4,1.4-3.07,2.92-2.26a.74.74,0,0,0,1-1c-1.43-3.19-2.83-6.57-2.88-10.12a11.83,11.83,0,0,1,.24-2.52,4.86,4.86,0,0,1,.82-2.19c.54-.6,1.67-.46,2.39-.35a7.39,7.39,0,0,1,2.5.84.66.66,0,0,0,1-.74,20.15,20.15,0,0,1-.24-6.57,3.67,3.67,0,0,1,1.11-2.39,1.73,1.73,0,0,1,2-.2.72.72,0,0,0,1.2-.7,2,2,0,0,1,1.16-2.25,3.26,3.26,0,0,1,3.1.58.7.7,0,0,0,1-.6,51,51,0,0,1-.09-9.41,44,44,0,0,1,.63-4.57,8.08,8.08,0,0,1,1.61-3.93C116.33,220.45,116,220.09,115.75,220.33Z"/><path class="cls-9" d="M199.61,299.79c-.16.66-.33,1.33-.5,2-.93,3.57-2,7.11-3,10.65-.43,1.51-.85,3-1.3,4.55.15,2.62.29,5.25.43,7.87s.49,5.53-.28,8.21a.93.93,0,0,1-1.42.56,2,2,0,0,1-.78.4,3.42,3.42,0,0,1-.7.12h-.17c-.28.05-.56.11-.85.15l-.26,0a2.33,2.33,0,0,1-1.53-.28h0a2.09,2.09,0,0,1-.34-.21,1.67,1.67,0,0,1-.32-.33.88.88,0,0,1-.52-.67,41.43,41.43,0,0,1,.24-8.69c.05-.51.07-1,.11-1.54,0-.3,0-.59,0-.88,0-2,0-3.91.09-5.86-.56-1.69-1-3.4-1.56-5.07-.73-2.34-1.45-4.7-2.14-7.06-.15-.51-.3-1-.44-1.52-.21-.72-.41-1.44-.61-2.16-.13-.46.57-.78.79-.33.45.91.88,1.83,1.3,2.76.28.61.56,1.22.83,1.84.74,1.69,1.44,3.39,2.13,5.09.07-1.14.15-2.28.26-3.41,0-.32.07-.64.11-.95a20.32,20.32,0,0,1,.41-2.25,11.64,11.64,0,0,1,1.27-3.12.54.54,0,0,1,.66-.25.64.64,0,0,1,.4-.08.55.55,0,0,1,.74.39.38.38,0,0,1,.12.16,23.18,23.18,0,0,1,.63,2.77c.33,1.88.49,3.81.76,5.66.1.71.19,1.42.26,2.14,1.08-2.81,2.12-5.62,3.27-8.39.37-.89.74-1.77,1.13-2.64C199,299,199.72,299.32,199.61,299.79Z"/><path class="cls-2" d="M218.31,293.3a35.29,35.29,0,0,1-8.79,5,59.93,59.93,0,0,1-10.41,3.45c-.48.11-1,.22-1.45.31a39.13,39.13,0,0,1-4.29.59,34.83,34.83,0,0,1-3.82.13,31.28,31.28,0,0,1-3.74-.32c-.49-.08-1-.16-1.48-.27-.88-.18-1.76-.4-2.63-.67a42.38,42.38,0,0,1-8.52-4,43.82,43.82,0,0,1-9.62-7.13c-.19-.19-.37-.39-.54-.59A19.73,19.73,0,0,1,158,280a6,6,0,0,1,.84-4.84,3,3,0,0,1,3.64-.69,19.85,19.85,0,0,1-2.07-3.09,4.15,4.15,0,0,1-.24-4.1,2.56,2.56,0,0,1,3.66-.85,18.31,18.31,0,0,1-7-15,9.12,9.12,0,0,1,1.49-5.07,7.21,7.21,0,0,1,6.57-2.65,10.75,10.75,0,0,1,6.43,3.42,11.88,11.88,0,0,1-2.15-4.84,4.81,4.81,0,0,1,.5-3.76,2.37,2.37,0,0,1,3.08-.68c-3.07-2.92-3.71-7.64-3.65-11.92a14.68,14.68,0,0,1,.82-5.32,6,6,0,0,1,3.75-3.64,3.89,3.89,0,0,1,4.23,1.57,11.14,11.14,0,0,1-1.24-5.78,5.54,5.54,0,0,1,1.91-4.08c1.25-.91,3.34-.73,4,.67a19.9,19.9,0,0,1-1.21-12.09c.5-2.29,1.65-4.73,3.86-5.52s4.57.33,6.14,2a13.37,13.37,0,0,1,3.29,8.38,40.18,40.18,0,0,1-.81,9.14c.5-.85.91-2.07,1.77-2.55a1.94,1.94,0,0,1,2.6.53,2.92,2.92,0,0,1,.09,1.76c-.25,1.45-.5,2.91-.76,4.36a1.82,1.82,0,0,1,2.2-1.26,2.92,2.92,0,0,1,1.93,1.92,7.52,7.52,0,0,1,.29,2.8,7.1,7.1,0,0,1-1,3.74,9.52,9.52,0,0,1,3.54-2.49,4.69,4.69,0,0,1,3.3-.36c1.9.62,2.71,2.84,3,4.82a22.63,22.63,0,0,1-3.66,15.73c.41-.44,1.06-.41,1.8-.68a3.59,3.59,0,0,1,2-.2,3.47,3.47,0,0,1,2.33,3.49,9.61,9.61,0,0,1-1.23,4,2.3,2.3,0,0,1,2.4-.85,2.79,2.79,0,0,1,1.6.85c1.1,1.23,1.2,3.06,1.06,4.71a23.58,23.58,0,0,1-3.15,9.85,3,3,0,0,1,4.06,0c1.32,1.27,1.5,3.33,1.26,5.15-.21,1.66-.83,2.25-2,3.48,1.53-1.54,3.58-3.19,5.63-2.48,1.66.58,2.44,2.48,2.81,4.2A22.49,22.49,0,0,1,218.31,293.3Z"/><path class="cls-2" d="M172.82,202.65a1,1,0,0,0-.66-.13c-.46.11-.68.63-.78,1.09a9.8,9.8,0,0,0,.47,5.91,1,1,0,0,0-.7-.89,1.87,1.87,0,0,0-1.19,0c-3.86,1.22.7,6.22,3.23,3.45C174.94,210.19,175.41,204,172.82,202.65Z"/><path class="cls-2" d="M164.51,229.91c-.2-.25-.51-.51-.81-.39a.68.68,0,0,0-.35.47,4.63,4.63,0,0,0-.07,2.22,11.38,11.38,0,0,0,2.3,5.13,8.33,8.33,0,0,0-2.11-.24c-.41,0-.92.13-1,.53a.75.75,0,0,0,.05.42c.32.75,1.31.92,2.12.8.66-.09,2.2-.42,2.57-1.06s-.05-1.95-.17-2.56A12.06,12.06,0,0,0,164.51,229.91Z"/><path class="cls-2" d="M210.44,208.13a2.3,2.3,0,0,0,.2-.86.81.81,0,0,0-.43-.72,1,1,0,0,0-.58,0,3.57,3.57,0,0,0-2.24,2.29c-.45,1.07-1.66,4.87-.52,5.69C208.54,213.41,209.73,210,210.44,208.13Z"/><path class="cls-2" d="M219.38,232.32a3.35,3.35,0,0,0,.44-1.86,1,1,0,0,0-.4-.71,1,1,0,0,0-1.06.08,2.41,2.41,0,0,0-.68.89,10.33,10.33,0,0,0-1.11,3.64,9.27,9.27,0,0,0-.11-2,1.51,1.51,0,0,0-.2-.62.84.84,0,0,0-1.11-.22,1.43,1.43,0,0,0-.5.72c-.53,1.37-.9,4.44,1.28,4.46S218.7,233.82,219.38,232.32Z"/><path class="cls-2" d="M228.64,256.51c.23-.53.43-1.22,0-1.64s-1.3-.19-1.79.28a6.45,6.45,0,0,0-1.68,4.26,10.84,10.84,0,0,0-.71-3.69c-.14-.36-.44-.79-.81-.68s-.37.33-.45.57c-.55,1.59-1.62,6.38.89,6.9C226.39,263,228,258.07,228.64,256.51Z"/><path class="cls-3" d="M225.78,271.81c-.37-1.72-1.15-3.62-2.81-4.2-2.05-.71-4.1.94-5.63,2.48,1.14-1.23,1.76-1.82,2-3.48.24-1.82.06-3.88-1.26-5.15a3,3,0,0,0-4.06,0,23.58,23.58,0,0,0,3.15-9.85c.14-1.65,0-3.48-1.06-4.71a2.79,2.79,0,0,0-1.6-.85,20.91,20.91,0,0,1-2,8.52,8.81,8.81,0,0,1-2.69,3.83,4.38,4.38,0,0,1-4.27.72c-.4-.18-1,.12-.81.62a10.39,10.39,0,0,1-2,10.4,8.79,8.79,0,0,1-9.52,2.22c-.4-.15-.71.3-.64.64a7.15,7.15,0,0,1-12.27,6.37.5.5,0,0,0-.84.35,11.37,11.37,0,0,1-6.34,9.1,14.13,14.13,0,0,1-6.51,1.49,16.4,16.4,0,0,1-3.59-.43c.17.2.35.4.54.59a43.82,43.82,0,0,0,9.62,7.13,42.38,42.38,0,0,0,8.52,4c.87.27,1.75.49,2.63.67.14.51.29,1,.44,1.52l.57.19,1.3.4c-.27-.62-.55-1.23-.83-1.84a31.28,31.28,0,0,0,3.74.32,20.32,20.32,0,0,0-.41,2.25l1.67.46a3.44,3.44,0,0,1,.33.93c.16.6.3,1.2.43,1.81.24,1.16.42,2.33.55,3.5a53.67,53.67,0,0,1,.34,7.06c0,2.38-.2,4.76-.45,7.13-.12,1.16-.26,2.33-.42,3.49a11.33,11.33,0,0,0-.29,3.18c-.07.4-.14.81-.19,1.22,0,.15,0,.31-.05.46.29,0,.57-.1.85-.15h.17a3.42,3.42,0,0,0,.7-.12,2,2,0,0,0,.78-.4.93.93,0,0,0,1.42-.56c.77-2.68.43-5.46.28-8.21s-.28-5.25-.43-7.87c.45-1.52.87-3,1.3-4.55,1-3.54,2.05-7.08,3-10.65a59.93,59.93,0,0,0,10.41-3.45,35.29,35.29,0,0,0,8.79-5A22.49,22.49,0,0,0,225.78,271.81Zm-31.39,38.67c-.07-.72-.16-1.43-.26-2.14-.27-1.85-.43-3.78-.76-5.66a39.13,39.13,0,0,0,4.29-.59C196.51,304.86,195.47,307.67,194.39,310.48Z"/><path class="cls-3" d="M173.57,263.73a8.18,8.18,0,0,0,1.88,2.62,3.28,3.28,0,0,0,3,.76,4.14,4.14,0,0,0,2.34-2.93,4.23,4.23,0,0,0,.13-2.41,1.88,1.88,0,0,0-1.81-1.38,1.91,1.91,0,0,0-1.47,1.17,4.78,4.78,0,0,0-.35,1.92c-.22-2.94-2.18-5.41-4.06-7.68a1.34,1.34,0,0,0-.49-.43c-1.69-.72-1.67,2.91-1.46,3.66A28.23,28.23,0,0,0,173.57,263.73Z"/><path class="cls-3" d="M200.33,236.62a1.79,1.79,0,0,0-.09-1.44,1.37,1.37,0,0,0-1.45-.39,3.34,3.34,0,0,0-2.08,1.85,9.79,9.79,0,0,0-.74,2.77,15.84,15.84,0,0,0-2-6.52c-.22-.39-.52-.82-1-.87s-.91.36-1.19.76c-1.9,2.74-1.57,6.56,0,9.5C195.18,248.66,199.51,240,200.33,236.62Z"/><path class="cls-3" d="M182.11,220.23c.15-.5.42-1.06.93-1.16.81-.15,1.24.92,1.33,1.73a35.39,35.39,0,0,1,.13,6.09,5.8,5.8,0,0,1,1.84-3.5c.34-.31.95-.53,1.17-.14a.82.82,0,0,1,.05.49c-.19,1.95-1.09,6.28-3.92,4.75C181.14,227.15,181.45,222.41,182.11,220.23Z"/><path class="cls-14" d="M186.92,194.24c.18-.38-.3-.82-.63-.48-2.29,2.37-2.78,6.06-2.74,9.22a81.33,81.33,0,0,0,.77,9.2,3.71,3.71,0,0,0-1.43-.57,2.74,2.74,0,0,0-2.95,1.81,7.28,7.28,0,0,0-.35,1.86,18.11,18.11,0,0,0-.15,2.33,19.62,19.62,0,0,0,.17,2.31l.06.43h-.17a3.84,3.84,0,0,0-2.43,1,8.54,8.54,0,0,0-2.94,5,18.6,18.6,0,0,0,.36,7.57c.39,1.92.9,3.81,1.45,5.69a3.22,3.22,0,0,0-1,.1,3.55,3.55,0,0,0-2.39,2.23,7.62,7.62,0,0,0-.21,3.85,14.32,14.32,0,0,0,.54,2.39,7.9,7.9,0,0,0-3.26-1,6.75,6.75,0,0,0-5.07,1.76,7.46,7.46,0,0,0-2.06,5.44,24.11,24.11,0,0,0,.8,6.38,22,22,0,0,0,2.82,6.85.65.65,0,0,0,1.12-.66,41.41,41.41,0,0,1-2.23-5.27,26.4,26.4,0,0,1-1.09-5.5,8.69,8.69,0,0,1,.76-5.25,5.18,5.18,0,0,1,3.89-2.32,6.86,6.86,0,0,1,5.25,2c.46.46,1.4,0,1.15-.67a23.16,23.16,0,0,1-.87-3.37,10.78,10.78,0,0,1-.26-2.94,2.62,2.62,0,0,1,1-2.07c.44-.27,1.31-.48,1.7,0,.52.68,1.83.35,1.51-.64-.63-2-1.19-4-1.65-6a28.66,28.66,0,0,1-.91-6.23,8.69,8.69,0,0,1,1.38-4.94,5.61,5.61,0,0,1,1.69-1.6c.34-.2,1.21-.56,1.48-.11a.47.47,0,0,0,.6.21.55.55,0,0,0,.59-.38,3.82,3.82,0,0,0-.13-1.71,15.5,15.5,0,0,1-.18-1.67,10.93,10.93,0,0,1,.25-3.56c.2-.68.52-1.7,1.4-1.64s1.72,1,2.27,1.67a.83.83,0,0,0,1.41-.58c-.45-3.59-.92-7.21-1-10.83a24.43,24.43,0,0,1,.22-4.68A16.88,16.88,0,0,1,186.92,194.24Z"/><path class="cls-15" d="M708.57,300.78c-.61,2.33-1.23,4.65-1.89,7-.28,1-.54,2-.81,2.94l0,.47c.18,2,.34,4.05.49,6.07.08,1.05.18,2.1.26,3.15a2.16,2.16,0,0,1-.84,2.3,1.19,1.19,0,0,1-.16.08,1.25,1.25,0,0,1-1.5.49,1.58,1.58,0,0,0-.44-.08,1.56,1.56,0,0,0-.76.14,1.47,1.47,0,0,1-1.84-1.41c0-3.38.17-6.75.32-10.13-.29-.86-.59-1.71-.9-2.57-.63-1.75-1.27-3.5-1.79-5.29s-.85-3.76-1.27-5.65a.48.48,0,0,1,.92-.25c.63,1.88,1.57,3.65,2.36,5.47.35.8.68,1.61,1,2.42.06-.7.13-1.41.22-2.11a20.24,20.24,0,0,1,.94-5.26.51.51,0,0,1,.75-.19.62.62,0,0,1,1,.44c.1.77.21,1.53.31,2.29.19,1.33.36,2.66.44,4,0,.44.07.88.1,1.32a57.19,57.19,0,0,1,2.28-5.91.3.3,0,0,1,.15-.16.35.35,0,0,1,.3,0h0A.41.41,0,0,1,708.57,300.78Z"/><path class="cls-16" d="M721.3,293.32a20.12,20.12,0,0,1-11,8,22.75,22.75,0,0,1-14.89-.21,19.09,19.09,0,0,1-4.43-2.43,17.31,17.31,0,0,1-6.06-7.9,8.84,8.84,0,0,1,0-6.9,4.19,4.19,0,0,1,2.16-2.09,2.66,2.66,0,0,1,2.85.55c-2.08-2.93-4.29-6.28-4.21-9.87a4.61,4.61,0,0,1,1.1-3.15,2.44,2.44,0,0,1,3.09-.42A13.44,13.44,0,0,1,687,257.44a2.22,2.22,0,0,1,.51-1.12,1.81,1.81,0,0,1,1.19-.43,4,4,0,0,1,3.36,1.56,9.18,9.18,0,0,1-1-5.65,2.6,2.6,0,0,1,1.22-2.12c1.09-.49,2.3.49,2.88,1.53a28.21,28.21,0,0,1,1-16.94A9.09,9.09,0,0,1,699,229.9c1.43-1,3.63-1.2,4.87.07a5,5,0,0,1,1.12,2.37c1.13,4.57.5,9.37-.14,14a4.4,4.4,0,0,1,1.83-2.85,1.53,1.53,0,0,1,1.22-.31c.57.17.81.84.94,1.43a18.44,18.44,0,0,1-.15,8.36c1-1.47,3.52-1.19,4.71.17a6.79,6.79,0,0,1,1.21,5.12,17.19,17.19,0,0,1-1.69,6,4.25,4.25,0,0,1,3.42-2.19,2.23,2.23,0,0,1,1,.3,4,4,0,0,1,1.56,3.21,17.25,17.25,0,0,1-1.62,9.28c1-1.26,3.12-1.09,4.34,0a7.29,7.29,0,0,1,2,4.31A19.76,19.76,0,0,1,721.3,293.32Z"/><path class="cls-16" d="M725,268.19c.29-.36.57-.87.31-1.25s-.94-.3-1.37,0a3.84,3.84,0,0,0-1.58,1.86,3.44,3.44,0,0,0-.31-2.9.6.6,0,0,0-.41-.35.51.51,0,0,0-.33.1,1.9,1.9,0,0,0-.73,1.27c-.21,1-.48,3.67.85,3.89C722.58,271,724.38,268.94,725,268.19Z"/><path class="cls-16" d="M714.4,245c.07-.43,0-1-.42-1.1a.77.77,0,0,0-.55.11c-.89.49-2.4,2.94-1.23,3.74S714.27,245.77,714.4,245Z"/><path class="cls-16" d="M690.29,240.51a.58.58,0,0,0-.26-.23c-.26-.09-.5.17-.61.43a3.1,3.1,0,0,0,0,1.93,9,9,0,0,0,1.33,3,2,2,0,0,0-1.31-.52.6.6,0,0,0-.5.16.67.67,0,0,0-.12.44,1.83,1.83,0,0,0,1.56,1.85C694.13,247.69,691.33,241.85,690.29,240.51Z"/><path class="cls-16" d="M683.41,261.73c-.14-.15-.34-.31-.52-.21a.44.44,0,0,0-.18.38,5.52,5.52,0,0,0,1,3.26,8.52,8.52,0,0,0,1.42,1.93C685.7,265.56,684.41,262.86,683.41,261.73Z"/><path class="cls-3" d="M723.68,279.17a7.29,7.29,0,0,0-2-4.31c-1.22-1.06-3.33-1.23-4.34,0a17.25,17.25,0,0,0,1.62-9.28,4,4,0,0,0-1.56-3.21,2.23,2.23,0,0,0-1-.3,15.7,15.7,0,0,1-3.67,11,.45.45,0,0,0-.06.51c1.17,1.86,2.41,4.29,1.35,6.5a3.39,3.39,0,0,1-4.74,1.33.44.44,0,0,0-.63.49,8,8,0,0,1-.35,4.53,7.36,7.36,0,0,1-2.13,3.76c-2.36,2.07-5.72,2-8.54,1.05a.41.41,0,0,0-.5.5c1.19,2.94-1.85,5.62-4.34,6.49a8.46,8.46,0,0,1-1.77.43,19.09,19.09,0,0,0,4.43,2.43,21.38,21.38,0,0,0,9,1.3c0,.67.11,1.33.08,2,0,1-.08,1.95-.09,2.92,0,2-.05,4-.05,6s0,3.74-.13,5.6c-.07.95-.18,1.89-.31,2.83-.06.45-.09.91-.15,1.35a1.58,1.58,0,0,1,.44.08,1.25,1.25,0,0,0,1.5-.49,1.19,1.19,0,0,0,.16-.08,2.16,2.16,0,0,0,.84-2.3c-.08-1.05-.18-2.1-.26-3.15-.15-2-.31-4-.49-6.07l0-.47c.27-1,.53-2,.81-2.94.56-1.94,1.08-3.91,1.6-5.87.68-.16,1.34-.33,2-.54a20.12,20.12,0,0,0,11-8A19.76,19.76,0,0,0,723.68,279.17Zm-18.13,27.21c0-.44-.07-.88-.1-1.32-.05-.91-.16-1.81-.27-2.71q1-.11,2-.27C706.57,303.49,706,304.92,705.55,306.38Z"/><path class="cls-3" d="M697.34,281.19a4,4,0,0,0,1.12.76,1.6,1.6,0,0,0,1.32,0,2.1,2.1,0,0,0,.9-1.74,6,6,0,0,0-.13-1.85,2.17,2.17,0,0,0-.39-.89.93.93,0,0,0-.86-.37,1.26,1.26,0,0,0-.82.87,4.09,4.09,0,0,0-.26,2c-.12-1-2.48-5.95-3.89-3.8-.47.72.4,1.69.77,2.26A14,14,0,0,0,697.34,281.19Z"/><path class="cls-3" d="M709.08,262a3.21,3.21,0,0,0,.2-1.56,1,1,0,0,0-.48-.71.84.84,0,0,0-1,.28,2.47,2.47,0,0,0-.45,1,34.42,34.42,0,0,0-.84,3.72,2,2,0,0,0-.94-.71,1.14,1.14,0,0,0-1.11.21,1.26,1.26,0,0,0,.29,1.81C707.38,268,708.5,263.8,709.08,262Z"/><path class="cls-3" d="M698.34,252.17a1.72,1.72,0,0,1,.31-.6.65.65,0,0,1,.62-.21.88.88,0,0,1,.49.54,7.91,7.91,0,0,1,.61,2.15,22.05,22.05,0,0,1,.26,2.31c0,.51.08,1.5-.6,1.59s-1-.77-1.23-1.2A6.55,6.55,0,0,1,698.34,252.17Z"/><path class="cls-17" d="M701,230.66a2.77,2.77,0,0,0-1.08.61,7.4,7.4,0,0,0-.9,1.11A14.08,14.08,0,0,0,697.7,235a26.21,26.21,0,0,0-1.74,5.95,35.58,35.58,0,0,0-.41,6.28c0,1,.08,2.08.17,3.12,0,.52.09,1,.15,1.55v0a3,3,0,0,0-.43,0,2.75,2.75,0,0,0-2,1.68,6.55,6.55,0,0,0-.26,3.23c.06.58.15,1.15.25,1.72a3,3,0,0,0-1.62-.12,2.78,2.78,0,0,0-2.11,2.75,15.14,15.14,0,0,0,.24,4.25,13.72,13.72,0,0,0,1,3.38,2.91,2.91,0,0,0-1.28.6,4.42,4.42,0,0,0-1.36,2.87,13.52,13.52,0,0,0,1.24,7.21c.38.84,1.78.24,1.5-.63a15.89,15.89,0,0,1-1.17-5.6,4.38,4.38,0,0,1,.59-2.33,1.43,1.43,0,0,1,.81-.57c.39-.1.76,0,1.13-.2a.67.67,0,0,0,.28-.44.61.61,0,0,0,.11-.65c-.35-1.05-.87-2-1.15-3.09a13.47,13.47,0,0,1-.46-3.16c0-.75-.2-2.26.57-2.73s1.77.19,2.33.8a.8.8,0,0,0,1.32-.77,16.06,16.06,0,0,1-.92-5,2,2,0,0,1,.84-1.75c.56-.31,1,0,1.53,0a.46.46,0,0,0,.44-.45,1.13,1.13,0,0,0,0-.18,1,1,0,0,0,.07-.22,3,3,0,0,0,0-.67c-.06-.51-.11-1-.15-1.55-.08-1-.13-1.93-.15-2.9a38.54,38.54,0,0,1,.28-5.88,26.68,26.68,0,0,1,1.29-5.71,16.79,16.79,0,0,1,1.12-2.57,10.31,10.31,0,0,1,.8-1.26c.27-.34.47-.71.71-1.06C701.33,230.81,701.18,230.59,701,230.66Z"/><polygon class="cls-18" points="601.1 255.31 651.19 255.31 655.19 321.19 607.14 321.19 601.1 255.31"/><polygon class="cls-19" points="651.19 255.31 651.64 262.78 608.41 263.24 613.88 321.19 607.14 321.19 601.1 255.31 651.19 255.31"/><polygon class="cls-20" points="598.88 231.03 641.19 231.03 651.19 255.31 601.1 255.31 598.88 231.03"/><polygon class="cls-19" points="608.41 231.03 614.15 248.4 648.9 249.74 651.19 255.31 601.1 255.31 598.88 231.03 608.41 231.03"/><g class="cls-11"><rect class="cls-12" x="622.57" y="309.03" width="24.31" height="1.24"/><rect class="cls-12" x="642.7" y="304.08" width="10.19" height="1.98"/><rect class="cls-12" x="621.58" y="298.6" width="13.15" height="0.91"/><rect class="cls-12" x="627.71" y="274.84" width="12.65" height="0.9"/><rect class="cls-12" x="630.45" y="241.6" width="9.91" height="0.78"/><rect class="cls-12" x="614.8" y="237.1" width="16.21" height="1.1"/><rect class="cls-12" x="619.01" y="246.84" width="11.44" height="1.41"/><rect class="cls-12" x="610.18" y="282.05" width="10.61" height="1.73"/></g><polygon class="cls-21" points="607.14 321.19 516.23 321.19 526.23 211.99 597.14 211.99 607.14 321.19"/><polygon class="cls-22" points="526.23 211.99 561.68 169.6 597.14 211.99 526.23 211.99"/><polygon class="cls-17" points="582.14 321.19 541.23 321.19 546.23 211.99 577.14 211.99 582.14 321.19"/><polygon class="cls-17" points="577.14 211.99 561.68 169.6 546.23 211.99 577.14 211.99"/><polygon class="cls-19" points="597.14 211.99 607.14 321.19 582.14 321.19 577.14 211.99 597.14 211.99"/><polygon class="cls-19" points="561.68 169.6 597.14 211.99 577.14 211.99 561.68 169.6"/><g class="cls-23"><polygon class="cls-12" points="598.11 222.62 525.26 222.62 526.23 211.99 597.14 211.99 598.11 222.62"/><polygon class="cls-12" points="597.14 211.99 607.14 321.19 600.32 321.19 592.14 211.99 597.14 211.99"/><polygon class="cls-12" points="561.68 169.6 597.14 211.99 592.14 211.99 561.68 169.6"/></g><polygon class="cls-24" points="555.29 294.84 568.08 294.84 570.08 321.19 553.29 321.19 555.29 294.84"/><rect class="cls-24" x="557.69" y="265.31" width="8" height="9.53"/><rect class="cls-24" x="557.69" y="239.31" width="8" height="9.53"/><rect class="cls-25" x="556.43" y="248.84" width="10.52" height="1.81"/><rect class="cls-25" x="556.43" y="274.84" width="10.52" height="1.81"/><rect class="cls-25" x="554.12" y="293.03" width="15.12" height="1.81"/><g class="cls-11"><rect class="cls-12" x="521.74" y="298.08" width="8.77" height="2.87"/><rect class="cls-12" x="533.63" y="288.91" width="5.38" height="1.99"/><rect class="cls-12" x="527.93" y="259.6" width="7.57" height="3.08"/><rect class="cls-12" x="551.29" y="231.03" width="8.99" height="2.89"/><rect class="cls-12" x="566.28" y="230.12" width="5.37" height="1.83"/><rect class="cls-12" x="566.28" y="260.38" width="9.78" height="2.3"/><rect class="cls-12" x="570.08" y="289.91" width="9.11" height="2.17"/><rect class="cls-12" x="543.84" y="310.22" width="4.83" height="2.13"/><rect class="cls-12" x="587.11" y="301.86" width="10.03" height="2.22"/><rect class="cls-12" x="585.4" y="268.99" width="6.05" height="1.7"/><rect class="cls-12" x="579.41" y="208.04" width="7.7" height="1.08"/><rect class="cls-12" x="535.49" y="205.08" width="8.61" height="1.83"/><rect class="cls-12" x="555.78" y="192.16" width="6.46" height="1.57"/><rect class="cls-12" x="561.68" y="186.42" width="5.26" height="1.57"/><rect class="cls-12" x="528.71" y="225.16" width="7.65" height="1.7"/><rect class="cls-12" x="548.67" y="261.14" width="7.11" height="2.11"/><rect class="cls-12" x="587.11" y="218.64" width="4.54" height="1.5"/><rect class="cls-12" x="588.39" y="226.53" width="7.3" height="1.04"/></g><polyline class="cls-26" points="540.26 195.21 561.68 169.6 587.55 200.53 597.14 211.99 526.23 211.99"/><line class="cls-26" x1="577.14" y1="211.99" x2="582.14" y2="321.19"/><line class="cls-26" x1="597.14" y1="211.99" x2="607.14" y2="321.19"/><polyline class="cls-26" points="557.69 239.31 565.68 239.31 565.68 248.84"/><line class="cls-26" x1="556.43" y1="274.84" x2="566.94" y2="274.84"/><line class="cls-26" x1="557.69" y1="265.31" x2="565.68" y2="265.31"/><line class="cls-26" x1="570.08" y1="321.19" x2="568.08" y2="294.84"/><polyline class="cls-26" points="655.19 321.19 651.19 255.31 631.01 255.31"/><line class="cls-26" x1="598.88" y1="231.03" x2="641.19" y2="231.03"/><path class="cls-27" d="M585.61,500H0V321.33a700.59,700.59,0,0,1,165.7-1.74q27.28,2.94,54.29,8,6.73,1.26,13.44,2.64,8.56,1.76,17.08,3.73,12.38,2.86,24.62,6.17h0q18,4.83,35.68,10.62a696.55,696.55,0,0,1,112.8,48.07q7.59,4.07,15.07,8.31c22.6,12.84,44.46,26.92,66.31,41Z"/><path class="cls-14" d="M423.63,398.78c-.87.93-2.89,1-5.92.46-7.57-1.37-16.22-5.09-23.89-5.09-4.66-1-9.36-2-13.68-4-8.49-4-15-11.6-23.92-14.57-12.46-4.18-26.67,1.73-39-2.7-9.08-3.25-15.73-11.64-25-14.37-8.28-2.44-17.4,0-25.7-2.34-4.3-1.23-8.13-3.7-11.88-6.13Q237.31,338.79,220,327.55q6.73,1.26,13.44,2.64,8.56,1.76,17.08,3.73,12.38,2.86,24.62,6.17h0q18,4.83,35.68,10.62A696.55,696.55,0,0,1,423.63,398.78Z"/><path class="cls-28" d="M376.91,421.47c-79.87,9.29-162-1.8-242.33,1.59-29.37,1.24-58.62,4.49-87.86,7.69-14.94,1.63-30.13,3.24-44.92.53-.6-.11-1.2-.23-1.8-.38V321.33a700.59,700.59,0,0,1,165.7-1.74c-10,9.35-25.41,12.13-39.48,12-16.2-.1-32.76-2.9-48.38,1.38a55.26,55.26,0,0,0-28.63,19c-3,3.81-6.22,8.45-11.06,8.66-2.12.09-4.16-.73-6.26-1-9.18-1.33-17.41,10-13.3,18.34,3.35,6.76,11.82,9.21,19.36,9.29,18.07.18,35.35-9,53.41-8.34,16.55.61,31.79,9.41,48.23,11.35,29.09,3.44,59.43-14.71,86.83-4.36,6.63,2.51,12.66,6.6,19.54,8.31,12.08,3,24.57-1.71,37-3,16.59-1.73,33.25,2.77,48.65,9.16S361.52,415.05,376.91,421.47Z"/><path class="cls-29" d="M750,323.7V500H206c12.94-26.08,26.56-52.1,47.33-72.39q6.41-6.25,13-12.38a426.83,426.83,0,0,1,35.13-29.51c.57-.44,1.15-.86,1.73-1.29h0c7.2-5.3,14.61-10.29,22.24-14.89q9.49-5.71,19.46-10.57c.82-.41,1.64-.8,2.47-1.19,32.63-15.31,69.53-25.16,105.31-30.55l4.15-.61q20.4-2.89,40.82-4.94h0q36-3.63,72.15-4.81,13.77-.47,27.54-.6,9.4-.11,18.8,0c3.27,0,6.54,0,9.81.09l3.08,0q6.94.11,13.87.29h.25c.79,0,1.56,0,2.34.06q17.6.5,35.2,1.48,24.88,1.37,49.78,3.62h0Q740.24,322.69,750,323.7Z"/><path class="cls-30" d="M642.91,316.64c-6.21,4-12.45,8-18.55,12.21-1.21.83-2.4,1.66-3.59,2.52a.09.09,0,0,0,0,0c-.91.65-1.81,1.3-2.71,2s-1.52,1.12-2.28,1.69c-11.88,9-21.72,19.78-31.33,31.07l-1.09,1.28c-.81,1-1.62,1.93-2.42,2.91-3.37,4.13-6.6,8.4-9.7,12.76q-1.63,2.28-3.22,4.59l-.13.2-1.84,2.7c-2.87,4.27-5.64,8.59-8.35,12.93q-1.75,2.82-3.45,5.67T551,414.74q-1.79,3.11-3.49,6.24l-.78,1.43-1.58,2.95c-.5.95-1,1.9-1.49,2.85q-1.2,2.31-2.37,4.64c-1.38,2.75-2.64,5.59-4.93,7.52-.71,2.77-2.19,5.19-5.29,6.1a10.36,10.36,0,0,1-3.65.33c-5.46,3.26-14.55,2.69-20.49,2.14a4.52,4.52,0,0,1-3.94-3,6.66,6.66,0,0,1-1.87-6.85c1.95-7.81,6.94-15.56,11.23-22.49q.48-.75.93-1.5,2.4-3.92,5-7.71c.52-.78,1-1.55,1.59-2.32s1.06-1.53,1.61-2.29,1-1.34,1.44-2c1.52-2.11,3.09-4.2,4.68-6.26,1.12-1.45,2.26-2.9,3.42-4.33q2.67-3.34,5.48-6.59,6.52-7.6,13.68-14.64,3-3,6.16-5.82,2.91-2.66,5.93-5.2,4-3.36,8.11-6.55c2-1.55,4-3.06,6-4.55q7.11-5.22,14.52-10c2.89-1.89,5.81-3.72,8.75-5.52,2.08-1.26,4.16-2.51,6.26-3.73l1.1-.64q5.41-3.15,10.91-6.19c2.69-1.48,5.39-2.95,8.11-4.38h.57l1.84,0H629Q636,316.46,642.91,316.64Z"/><g class="cls-31"><path class="cls-32" d="M642.91,316.64c-6.21,4-12.45,8-18.55,12.21-1.21.83-2.4,1.66-3.59,2.52a.09.09,0,0,0,0,0c-.91.65-1.81,1.3-2.71,2s-1.52,1.12-2.28,1.69c-11.88,9-21.72,19.78-31.33,31.07l-1.09,1.28c-.81,1-1.62,1.93-2.42,2.91-3.37,4.13-6.6,8.4-9.7,12.76q-1.63,2.28-3.22,4.59l-.13.2-1.84,2.7c-2.87,4.27-5.64,8.59-8.35,12.93q-1.75,2.82-3.45,5.67T551,414.74q-1.79,3.11-3.49,6.24c-.64.67-2,.24-1.65-.84a49.73,49.73,0,0,1,3.55-8.05q2-4,4.16-7.92c2.81-5.08,5.76-10.09,8.93-15a252.41,252.41,0,0,1,40.33-47.59c6.2-5.71,12.68-11.11,19.38-16.23a408.89,408.89,0,0,0-56.24,38.43A317.8,317.8,0,0,0,538.65,389q-6.36,6.58-12.35,13.53c-2,2.36-4.09,4.71-6.1,7.09a46.61,46.61,0,0,1-6.32,6.84,1.6,1.6,0,0,1-1.58.15q.48-.75.93-1.5,2.4-3.92,5-7.71c.52-.78,1-1.55,1.59-2.32s1.06-1.53,1.61-2.29,1-1.34,1.44-2c1.52-2.11,3.09-4.2,4.68-6.26,1.12-1.45,2.26-2.9,3.42-4.33q2.67-3.34,5.48-6.59,6.52-7.6,13.68-14.64,3-3,6.16-5.82,2.91-2.66,5.93-5.2,4-3.36,8.11-6.55c2-1.55,4-3.06,6-4.55q7.11-5.22,14.52-10c2.89-1.89,5.81-3.72,8.75-5.52,2.08-1.26,4.16-2.51,6.26-3.73l1.1-.64q5.41-3.15,10.91-6.19c2.69-1.48,5.39-2.95,8.11-4.38h.57l1.84,0H629Q636,316.46,642.91,316.64Z"/><path class="cls-32" d="M532.06,430.42a236.32,236.32,0,0,1,41.82-64.53c-20,15.16-38.45,33.15-53,53.64C524,423.59,528.84,426.48,532.06,430.42Z"/></g><path class="cls-33" d="M518.2,407.35c.52-.78,1-1.55,1.59-2.32s1.06-1.53,1.61-2.29,1-1.34,1.44-2c1.52-2.11,3.09-4.2,4.68-6.26,1.12-1.45,2.26-2.9,3.42-4.33q2.67-3.34,5.48-6.59,6.52-7.6,13.68-14.64,3-3,6.16-5.82,2.91-2.66,5.93-5.2,4-3.36,8.11-6.55c2-1.55,4-3.06,6-4.55q7.11-5.22,14.52-10c2.89-1.89,5.81-3.72,8.75-5.52,2.08-1.26,4.16-2.51,6.26-3.73l1.1-.64q5.41-3.15,10.91-6.19"/><path class="cls-28" d="M750,363V500H631.56c-33-4.09-65.87-9.19-98.67-14.61q-132.12-21.88-262.9-51c-2.61-.59-5.54-1.4-6.82-3.76-1-1.92-.63-4.28-.07-6.39a59.29,59.29,0,0,1,3.23-9,426.83,426.83,0,0,1,35.13-29.51c11.56-3.82,23.51-6.17,35.09-3.16,9.75,2.54,18.26,8.71,28,11.2,13.54,3.45,27.86-.55,40.74-6s25.3-12.35,39-15.14,29.5-.54,38.78,9.91c4.15,4.67,6.77,10.7,11.6,14.65,11.39,9.33,28.29,3.12,41.53-3.31,14.17-6.87,28.54-13.66,43.88-17.22S612,373,626.49,379.21c12.45,5.35,22.92,15.17,36,18.49,9.27,2.34,19.08,1.21,28.4-.91C713.34,391.7,734.93,380,750,363Z"/><g class="cls-13"><path class="cls-5" d="M750,323.7v9.75a61.22,61.22,0,0,1-38.9,9.73c-18.84-1.91-36-12.53-54.77-14.62a62.07,62.07,0,0,0-31.61,4.82c-9,3.94-17.39,10.13-27.18,10.81-10.47.72-20.12-5-29.93-8.67a81.68,81.68,0,0,0-43.21-3.87c-15.22,2.79-29.54,9.9-45,11.28-13.12,1.18-26.22-1.86-39.37-2.79-40.55-2.84-79.49,14.41-116.47,31.29.6-.64,1.21-1.27,1.84-1.89q9.49-5.71,19.46-10.57c.82-.41,1.64-.8,2.47-1.19,32.63-15.31,69.53-25.16,105.31-30.55l4.15-.61q20.4-2.89,40.82-4.94h0q36-3.63,72.15-4.81,13.77-.47,27.54-.6,9.4-.11,18.8,0c3.27,0,6.54,0,9.81.09l3.08,0q6.94.11,13.87.29h.25c.79,0,1.56,0,2.34.06q17.6.5,35.2,1.48,24.88,1.37,49.78,3.62h0Q740.24,322.69,750,323.7Z"/></g><path class="cls-34" d="M750,453.4V500H0V407.07l23.89-.86q13.71-.48,27.43-.94,43.23-1.47,86.54-2.52,18.27-.44,36.55-.75,9.85-.17,19.73-.29,49.62-.66,99.2-.16,49.43.57,98.7,2.74h0q10.92.49,21.83,1.09,9.86.53,19.69,1.14,19.68,1.22,39.3,2.79l3.59.3q40.48,3.3,80.73,8.23,24.64,3,49.2,6.76h0c40.23,6.12,80.22,13.7,119.91,23Q738.19,450.41,750,453.4Z"/><path class="cls-30" d="M472.87,409.31l-.64.15h0a123.15,123.15,0,0,0-48.14,22.85c-6.58,5.13-12.61,10.92-18.84,16.45-17,15.11-35.84,28.5-56.81,37.37-12,5.08-24.74,8.66-36.68,13.86H98.11c33.74-17.41,73.88-22.18,112.32-25,29.52-2.15,59.83-3.75,88.56-10.19,17-3.82,33.52-9.34,49-17.69,13.52-7.31,25.88-16.63,39.33-24.09a147.32,147.32,0,0,1,20.15-9.27,159.45,159.45,0,0,1,26.14-7.25q6.65.41,13.28.87h0l4.82.32h0q10.5.75,21,1.59h.17Z"/><path class="cls-28" d="M750,485.8V500H0V466.47a643.41,643.41,0,0,1,103.69-15.2c31.38-2,63.23-1.67,93.79,5.72,30.06,7.26,59.1,21.35,90,20.88,34.73-.53,68.15-19.51,102.59-15.05,12.19,1.58,23.78,6.05,35.38,10.1,28,9.8,57.59,17.4,87.19,14.88,24.86-2.13,48.66-11.31,73.46-14.07,34.9-3.88,69.75,5.07,104.49,10.19C710.1,486.79,730.53,488.28,750,485.8Z"/><g class="cls-8"><path class="cls-5" d="M726.32,447.63c-74.22-7.27-150.51-13-223.75-19.69-46.66-4.25-93.5-6.15-140.31-8L23.89,406.21q13.71-.48,27.43-.94,43.23-1.47,86.54-2.52,18.27-.44,36.55-.75,9.85-.17,19.73-.29,49.62-.66,99.2-.16,49.43.57,98.7,2.74h0q10.92.49,21.83,1.09,9.86.53,19.69,1.14,19.68,1.22,39.3,2.79l3.59.3q40.48,3.3,80.73,8.23,24.64,3,49.2,6.76h0C646.64,430.72,686.63,438.3,726.32,447.63Z"/><path class="cls-5" d="M425.54,416.62c-12.56,7-26.59,11.17-39.06,18.51C369.77,444.42,354,456,335.55,461.18c-11.84,3.33-24.21,3.84-36.56,3.64,17-3.82,33.52-9.34,49-17.69,13.52-7.31,25.88-16.63,39.33-24.09a147.32,147.32,0,0,1,20.15-9.27l1.05.11C412.56,414.31,422.84,413.6,425.54,416.62Z"/></g><path class="cls-33" d="M144,483.82c21.67-4.93,44.32-7.2,66.41-8.81,29.52-2.15,59.83-3.75,88.56-10.19,17-3.82,33.52-9.34,49-17.69,13.52-7.31,25.88-16.63,39.33-24.09a147.32,147.32,0,0,1,20.15-9.27,159.45,159.45,0,0,1,26.14-7.25"/><path class="cls-35" d="M642.46,500H395.05a27.74,27.74,0,0,1-3.53-4.9c-4.55-8.05-3.33-20.14,4.92-24.32,5-2.54,11.11-1.55,16.29.61a40.17,40.17,0,0,1,16.83,13.24,25.74,25.74,0,0,1-3.68-16.6c.29-2.35,1.37-5.11,3.71-5.45,1.83-.26,3.45,1.13,4.7,2.49a44.6,44.6,0,0,1,7.76,11.77c-1.29-2.68-1.83-7,1.09-7.59a4.44,4.44,0,0,1,3.24,1,21.37,21.37,0,0,1,6.26,6.75,43.8,43.8,0,0,1-1.51-26.94c1.42-5.34,4.72-11.07,10.19-11.86,5.74-.82,10.6,4.19,13.59,9.16a59.1,59.1,0,0,1,8.37,28.85c.2-3.89.46-8,2.55-11.28s6.66-5.37,10-3.38c2.66,1.57,3.59,5,3.71,8.05,0-3,.65-6.44,3.2-8.1,2.86-1.85,6.92-.47,9.12,2.14s3,6.08,3.77,9.41c1.42-8.68,3-17.76,8.43-24.69,2.17-2.78,5.06-5.19,8.52-5.86,6.67-1.3,13,4.48,14.91,11,1.66,5.82.67,12-.6,17.93a7.83,7.83,0,0,1,15.22,2.88A76.1,76.1,0,0,1,571.34,448c1.83-3.18,4.45-6.57,8.12-6.69,5.12-.16,7.94,5.86,8.82,10.9a68.82,68.82,0,0,1-.45,26.1c1.62-4.74,3.35-9.64,6.85-13.23s9.3-5.44,13.63-2.92c4.78,2.79,5.69,9.52,4.14,14.84a5.83,5.83,0,0,1,10.8,4.33,12.53,12.53,0,0,1,22.18-2C649.44,485.66,647,493.74,642.46,500Z"/><path class="cls-35" d="M636.42,461.11a2.64,2.64,0,0,0-2.23-.46,11.89,11.89,0,0,0-5.06,2.77,15,15,0,0,0-3.08,3.38c-.38-1.25-1.22-2.87-2.52-3-1.63-.21-2.13,1.64-2.21,2.87-.18,2.7,1.17,7.32,4.63,7.06,1.74-.12,3.34-1.34,4.66-2.39a22.8,22.8,0,0,0,3.74-3.8,23.79,23.79,0,0,0,1.46-2.1,7.48,7.48,0,0,0,1.12-2.37A2.08,2.08,0,0,0,636.42,461.11Z"/><path class="cls-35" d="M565.86,442.87c-.55-1.76-2.33-2.16-3.86-1.42a10.48,10.48,0,0,0-4,4.06,15.92,15.92,0,0,0-1.82,4.18,2.67,2.67,0,0,0-2.77-1.52c-1.7.41-1.5,2.54-1.27,3.84a8,8,0,0,0,2.32,4.7,4.2,4.2,0,0,0,4.72.74,10.24,10.24,0,0,0,3.5-4,25.84,25.84,0,0,0,2.25-5.07c.29-.88.55-1.78.78-2.68A5.27,5.27,0,0,0,565.86,442.87Z"/><path class="cls-35" d="M518.2,436.59a2.46,2.46,0,0,0-2.46-1.5,3.78,3.78,0,0,0-2.56,2.2c-1.25,2.31-1.35,5.08-1.44,7.65s-.42,6.06,1.66,8.15a.58.58,0,0,0,.81,0l.3-.39a.29.29,0,0,0,.27-.13,13.75,13.75,0,0,0,1-1.78l0-.06c.3-.66.55-1.33.8-2a35.2,35.2,0,0,0,1.28-4.13,28.25,28.25,0,0,0,.69-4.18A7.57,7.57,0,0,0,518.2,436.59Z"/><path class="cls-35" d="M490.82,444.08c-.2-1-1.18-1.13-2-.86a7.85,7.85,0,0,0-2.47,1.39,36.5,36.5,0,0,0-.64-4.06,26.88,26.88,0,0,0-2-6.11c-.66-1.36-2.43-4.1-4.07-2.23-1.3,1.47-1.22,3.72-1,5.54a29.9,29.9,0,0,0,4.26,11.74c.85,1.48,2.2,3.69,4.16,2.47a6.47,6.47,0,0,0,1.87-2.09,12.58,12.58,0,0,0,1.32-2.71A6.22,6.22,0,0,0,490.82,444.08Z"/><path class="cls-35" d="M446.46,449.1c-.06-.75.07-2.13-.83-2.46s-1.67.91-2,1.56a13.19,13.19,0,0,0-1,2.94c-.29,1.15-.56,2.32-.76,3.5a20.63,20.63,0,0,0,0,8.06.57.57,0,0,0,.49.43.62.62,0,0,0,1-.07,15.27,15.27,0,0,0,1.27-3.38c.37-1.17.71-2.34,1-3.54A22.66,22.66,0,0,0,446.46,449.1Z"/><path class="cls-36" d="M523.26,493.89a14.79,14.79,0,0,1-2.7,6.11H413.68c-1.61-1.93-2.9-4.37-2.18-6.73,1.05-3.48,5.67-4.38,9.23-3.61a19.18,19.18,0,0,1,10,5.76,5.19,5.19,0,0,1,1.34-6.61c2.26-1.74,5.52-1.62,8.12-.45a23.87,23.87,0,0,1,6.72,5.22,4.13,4.13,0,0,1,.53-5.62,6,6,0,0,1,5.92-.88,11.05,11.05,0,0,1,4.84,3.86,57.92,57.92,0,0,1-2.53-10.25,13.55,13.55,0,0,1,.72-7.12,6.68,6.68,0,0,1,5.47-4.16,6.86,6.86,0,0,1,5.43,2.73,16.67,16.67,0,0,1,2.72,5.64c1,3.16,1.74,6.54,1,9.75,1.12-2.76,2.85-5.62,5.7-6.49,3.9-1.18,7.85,2,9.87,5.53a20.93,20.93,0,0,1,2.52,7.18,5.28,5.28,0,0,1,10.46-1.13,3.76,3.76,0,0,1,4.05-4,3.61,3.61,0,0,1,2.63,4.44,16.33,16.33,0,0,1,6.84-6.35,8.45,8.45,0,0,1,5-1.23C521.75,486,523.83,490.27,523.26,493.89Z"/><g class="cls-13"><path class="cls-5" d="M403.08,473.36c.37-.31.05-.88-.37-.89-2.25-.06-4.1,1.53-5.33,3.27a13.55,13.55,0,0,0-2.19,7.54,21.67,21.67,0,0,0,1.19,7.53,23.44,23.44,0,0,0,1.56,3.6c.6,1.11,1.31,2.63,2.48,3.2a1.48,1.48,0,0,0,2.14-1.64,8.9,8.9,0,0,0-1.47-2.72,20,20,0,0,1-1.39-3,21.29,21.29,0,0,1-1.29-6.21,13.66,13.66,0,0,1,.94-6.39A12.63,12.63,0,0,1,403.08,473.36Z"/><path class="cls-5" d="M461.56,441.65c-1.88-.15-3,2.42-3.74,3.77a27.29,27.29,0,0,0-2.38,6.1,25.45,25.45,0,0,0,.07,13.14,1.49,1.49,0,0,0,2.88-.79,30.26,30.26,0,0,1-.27-11.42,26.72,26.72,0,0,1,1.57-5.47,22.34,22.34,0,0,1,1.24-2.5,9.29,9.29,0,0,0,1.17-2.11A.58.58,0,0,0,461.56,441.65Z"/><path class="cls-5" d="M536.14,446.22c-3.5.45-6.21,3.29-8.38,5.86a54.67,54.67,0,0,0-6.3,9.1,57.78,57.78,0,0,0-5.81,14.9,8.9,8.9,0,0,0-5.76-4.95,6.34,6.34,0,0,0-7.83,3.64c-1.63-2.5-4.1-4.52-7-4.44-5.07.14-6.64,6.26-5.76,10.34.28,1.31,2.56,1.41,2.76,0,.3-2.1-.17-7.55,3.39-7.16,2.9.31,4.95,3.62,5.58,6.16.34,1.35,2.67,1.51,2.89,0s.45-3.66,1.64-4.92a3.94,3.94,0,0,1,4.26-.66c3.52,1.28,4.49,5.45,5,8.74.22,1.36,2.4,1.29,2.67,0,.71-3.37,1.27-6.74,2.3-10a59.83,59.83,0,0,1,3.9-9.57,63.5,63.5,0,0,1,5.31-8.58,35.46,35.46,0,0,1,7.42-7.41C536.78,447,536.74,446.14,536.14,446.22Z"/><path class="cls-5" d="M638.23,478.84a10.83,10.83,0,0,0-7.15-.39c-3.88,1.05-6.83,3.8-9.15,7a7.36,7.36,0,0,0-5.69-3.76c-2.7-.2-7.73,2.21-6.29,5.58a1.39,1.39,0,0,0,1.9.5c.86-.54,1-1.52,1.8-2.13a3.62,3.62,0,0,1,2.54-.74c2.17.24,3.48,2.35,3.88,4.31a1.56,1.56,0,0,0,2.82.37c1.84-3.17,4.13-6.34,7.56-7.91,3-1.37,7.73-1.43,9.47,1.93a.6.6,0,0,0,1.08-.14C641.72,481.37,640,479.61,638.23,478.84Z"/></g><path class="cls-36" d="M626.09,500h-90a10.64,10.64,0,0,1-.22-3.47,10.47,10.47,0,0,1,7.8-8.9,9.62,9.62,0,0,1,10.54,5c-.45-1.78-.68-4.14.94-5a3.23,3.23,0,0,1,1.63-.3,6.5,6.5,0,0,1,5.81,4.64c.62-6.28,1.54-12.8,5.12-18a9.85,9.85,0,0,1,3.51-3.34,4.91,4.91,0,0,1,4.69,0c1.54.94,2.22,2.82,2.59,4.58A25.47,25.47,0,0,1,576.25,492a5.71,5.71,0,0,1,2.23-2.05,4,4,0,0,1,4.27.33,3,3,0,0,1,.47,4,19.65,19.65,0,0,1,7.32-4.74,6.1,6.1,0,0,1,3.85-.38,2.66,2.66,0,0,1,2,3c1.63-2.46,3.31-5,5.69-6.71s5.64-2.6,8.33-1.39c3.71,1.68,4.87,6.92,2.93,10.5a20.53,20.53,0,0,1,6.6-1.53,6.89,6.89,0,0,1,5.9,2.8A4.57,4.57,0,0,1,626.09,500Z"/><path class="cls-35" d="M124.22,476.51c-6.38,11.85-15.82,18-26.9,23.49H0V419.59a14.19,14.19,0,0,1,10.34,7c2.36,3.89,3.12,8.57,3.08,13.13a12.27,12.27,0,0,1,1.37-5.43c1-1.59,3.06-2.7,4.81-2a5.4,5.4,0,0,1,2.59,3.11,22.13,22.13,0,0,1,1.76,9.8c.85-9.89,5.5-19.92,14-25s21.09-3.57,26.55,4.71c5.31,8.05,2.6,18.94-1.89,27.47a5.65,5.65,0,0,1,10.66,3c.34-3.39,4.54-5.62,7.84-4.55s5.51,4.76,5.73,8.34-1.1,7.07-2.73,10.27c8.4-9,20.21-16.06,32.47-14.77,2.24.24,4.58.82,6.14,2.43C125.69,460.12,128.43,468.68,124.22,476.51Z"/><path class="cls-35" d="M100.66,442.58a2.31,2.31,0,0,0-2.1.21,12.84,12.84,0,0,0-2.46,1.5,13.48,13.48,0,0,0-2,1.91,23.68,23.68,0,0,0,.06-4.53,4.88,4.88,0,0,0-.5-2.39A1.22,1.22,0,0,0,92,439c-1.47.89-1.66,3-1.82,4.52a32.54,32.54,0,0,0-.18,6.24c.1,1.31.3,4.17,2.12,4.23a3,3,0,0,0,2.05-1c.77-.7,1.56-1.38,2.31-2.1a22.79,22.79,0,0,0,3.7-4.2C100.7,445.73,102.05,443.39,100.66,442.58Z"/><path class="cls-35" d="M75.81,425.94c-.91,0-1.75,1.11-2.23,1.76a10.36,10.36,0,0,0-1.52,3.07,17.75,17.75,0,0,0-.82,5.23,8.3,8.3,0,0,0-.24,1.48,9.14,9.14,0,0,0-.06,1.18c-.1.76-.1,1.93.66,2.11s1.61-1.15,2-1.73a19.76,19.76,0,0,0,2.92-7A15.12,15.12,0,0,0,77,428.2C76.93,427.45,76.85,426,75.81,425.94Z"/><path class="cls-35" d="M26.73,413.38c-1.75.7-2.27,3.2-2.66,4.81a28.94,28.94,0,0,0-.81,6.8,15.06,15.06,0,0,0-2.38-3.38,2.21,2.21,0,0,0-1.76-.85A1.37,1.37,0,0,0,18,422a7.9,7.9,0,0,0,1.07,4.46c.67,1.28,1.81,2.92,3.22,3.45,1.7.64,2.65-1.17,3.06-2.62a26,26,0,0,0,1.55-3.18,27.66,27.66,0,0,0,1.92-6.59C29,416.26,29,412.47,26.73,413.38Z"/><path class="cls-36" d="M93,490.31a10.1,10.1,0,0,1-1.56,4.74A35.71,35.71,0,0,1,88.08,500H0V475.1a9.7,9.7,0,0,1,3.8-3.42A7.77,7.77,0,0,1,12.7,473a7.79,7.79,0,0,1,5.8-9.69,7.8,7.8,0,0,1,8.76,7.13c.08-7.4.22-15.05,3.31-21.77a14.45,14.45,0,0,1,4.89-6.2,7.63,7.63,0,0,1,7.58-.68A9.88,9.88,0,0,1,47.09,447c2.58,6.09,2.74,12.9,2.86,19.51.07,3.66.09,7.5-1.19,10.87a14.75,14.75,0,0,1,6.79-6.09c2.43-1.05,5.5-1.33,7.5.4a6.82,6.82,0,0,1,1.81,2.78,12.8,12.8,0,0,1,.09,8.82,10.65,10.65,0,0,1,5.76-5.05c1.79-.64,4.08-.65,5.31.81a5.19,5.19,0,0,1,1,2.76,15.65,15.65,0,0,1-1.3,8.32c2.11-3.23,5.4-6,9.25-6.29S93,486.45,93,490.31Z"/><g class="cls-13"><path class="cls-5" d="M81.38,459c-2.77-2.72-6-1.34-8.61.89a6,6,0,0,0-.23-1.34,4.74,4.74,0,0,0-4.06-3.13c-2.7-.37-6.54,1.12-6.82,4.21,0,.38.45.48.69.28,1.59-1.29,3.43-2.53,5.58-1.83a2.09,2.09,0,0,1,1.72,1.9,26.16,26.16,0,0,1-.45,4.4,1.57,1.57,0,0,0,1.17,1.52,1.64,1.64,0,0,0,1.78-.72c1.19-1.67,5.2-6.65,7.33-3.62.94,1.35.62,3.36.3,4.86a16.63,16.63,0,0,1-2,5.08c-1.1,1.84,1.78,3.52,2.87,1.68C82.92,469.32,85.11,462.69,81.38,459Z"/><path class="cls-5" d="M118.55,458c-1.13-.94-2.83-.82-4.21-.69a25.64,25.64,0,0,0-4.69.85,39.68,39.68,0,0,0-9.43,4.15A59.93,59.93,0,0,0,92,468.21c-1.29,1.08-2.54,2.21-3.76,3.37-1,1-3.08,2.35-2.88,4a1.27,1.27,0,0,0,1.23,1.22c1.52.18,2.69-1.58,3.68-2.52q1.74-1.68,3.57-3.26a56.92,56.92,0,0,1,7.63-5.58,42.9,42.9,0,0,1,8.57-4c1.52-.51,3.07-1,4.63-1.35,1.27-.31,2.88-.48,3.84-1.46A.41.41,0,0,0,118.55,458Z"/><path class="cls-5" d="M58.13,420.72C52.23,418,45,420.62,40,424.17c-5.86,4.15-9.66,10.21-12.41,16.74-1,2.41-1.88,4.87-2.69,7.36a9.29,9.29,0,0,0-7.2-4.52c-4.15-.3-9,4-7,8.32.68,1.43,2.66.58,2.75-.75a4.49,4.49,0,0,1,1.16-3.26,4,4,0,0,1,3.77-.86c3,.75,4.5,3.58,5.09,6.39.35,1.67,2.75,1.49,3.2,0,2.45-8,5.15-16.36,10.73-22.84a26.62,26.62,0,0,1,9.14-7,28.29,28.29,0,0,1,11.29-2.07C58.35,421.68,58.62,421,58.13,420.72Z"/></g></g></g></g></g></svg>