<svg xmlns="http://www.w3.org/2000/svg" viewBox="0 0 750 500"><defs><style>.cls-1{isolation:isolate;}.cls-2{fill:#fee;opacity:0.5;mix-blend-mode:overlay;}</style></defs><title>Mesa de trabajo 1</title><g class="cls-1"><g id="OBJECTS"><path class="cls-2" d="M750,113.25V310.1H0V0H47.38A60.86,60.86,0,0,1,60.9,42.17c-.26,3.87-1,7.92-3,11.19A22.06,22.06,0,0,1,74.3,46.53c7.31.23,15,5.83,18.69,12.17a30.81,30.81,0,0,1,45.53,13.61c4.65,11,2.55,23.7-1.22,35,3.21-5.81,11.53-7.57,17.39-4.47s9.09,10,8.93,16.65c2.4-10.93,15.25-18.27,25.89-14.77s16.63,17,12.07,27.25a13.65,13.65,0,0,1,16-3.53,14.61,14.61,0,0,1,7.92,11.42c.5-19.66,13.42-38.62,31.71-46a35.88,35.88,0,0,1,17-2.79c10.26,1.08,19.32,8.06,24.52,17s6.89,19.5,6.54,29.81c-.47,13.77-4,27.76-11.06,39.61,5.24-9.11,17.42-13.5,27.26-9.83s16.18,15,14.17,25.28a15.11,15.11,0,0,1,28.85.23c1.58-4.62,8.3-5.68,12.28-2.86s5.54,8,5.77,12.9c-.21-8.34.65-16.88,4.14-24.45s9.88-14.11,17.94-16.28c12.43-3.34,25.82,4.68,32.2,15.87s7.09,24.72,6.21,37.57a12.17,12.17,0,0,1,23.37,5.76,13.6,13.6,0,0,1,25.19,2.18c2-15,10.35-30.16,24.41-35.72s33.24,2.71,35.11,17.72c10.54-10.51,31.25-6.79,37.48,6.72C591,202,597.92,192,608,187.94s23.2-.82,28.7,8.58c1.63-7.25,4.44-14.64,10.16-19.38s15-5.8,20.35-.65c2.84-12.49,19.11-17.94,30-11.27a56.25,56.25,0,0,1,52.72-52Z"/></g></g></svg>