<svg xmlns="http://www.w3.org/2000/svg" viewBox="0 0 750 500"><defs><style>.cls-1{isolation:isolate;}.cls-2{opacity:0.4;mix-blend-mode:overlay;}.cls-3{fill:#fee;}</style></defs><title>Mesa de trabajo 1</title><g class="cls-1"><g id="OBJECTS"><g class="cls-2"><path class="cls-3" d="M750,28.74V79.63c-18.65,8.45-39.59,12.49-60.07,15.1-8.43,1.07-17.5,1.84-25-2.23-3.05-1.66-5.93-5.22-4.34-8.3,1.2-2.33,4.32-2.91,6.92-2.56s5.18,1.33,7.78,1c-2.91-4.42-.54-10.9,4-13.63s10.38-2.32,15.32-.44A15.45,15.45,0,0,1,720.18,53.1c-4.59-8.58-1.55-20.42,6.59-25.73C733.73,22.83,743.56,23.63,750,28.74Z"/><path class="cls-3" d="M683.37,16.26c2.63.06,5.54.38,7.31,2.33,3.47,3.84-.29,9.89-4.39,13-7.7,5.91-16.93,9.47-26.16,12.47-21,6.84-42.82,11.16-64.58,15.14-19.43,3.55-38.92,6.83-58.55,9-33.16,3.72-68,4.1-98.4-9.65-5.35-2.41-11.19-6.27-11.45-12.13-.31-6.84,7.21-11.33,13.93-12.65a45.69,45.69,0,0,1,34.41,7.25c-1.6-8.17,3.73-16.68,11.18-20.39s16.45-3.26,24.33-.57,14.89,7.42,21.72,12.18c-2-4.81.7-10.72,5.22-13.29s10.29-2.2,15-.07,8.62,5.81,12,9.73A12.23,12.23,0,0,1,588.8,25.6c5.71-7.42,14.62-12.6,24-12.71,6.83-.08,12.25,2.86,17.65,6.7,3.9,2.77,4.92,5.77,6.88,8.38,4-3.58,18.13-7.47,24.15-9.08A78.17,78.17,0,0,1,683.37,16.26Z"/><path class="cls-3" d="M435.33,98.64c-25.22,5.72-51.6,2.93-76.95-2.2C288.12,82.23,221,49.54,169.32,0H281.66C286,7.91,287,17.62,282,25A50.22,50.22,0,0,1,330,26.1c8.21,4.85,15.46,13.72,13.63,23.08,9.26-4.46,19.74-6.7,29.93-5.35s20,6.49,26.14,14.74c4.78,6.45,6.95,15.93,2.13,22.35a44.68,44.68,0,0,1,38.32,6.74A7.18,7.18,0,0,1,443.06,91C444.28,94.92,439.32,97.73,435.33,98.64Z"/><path class="cls-3" d="M240.14,76.1C210.46,72,183.63,61.63,156.8,48.3c-25.72-12.79-50.69-28.2-71-48.3h45.05A384.66,384.66,0,0,0,240.14,76.1Z"/><path class="cls-3" d="M427.32,127c-19.48,4.33-39.48,7.9-59.32,5.7s-39.74-10.86-51.56-26.93c22.6,9.54,45.3,18.46,69.8,19.84C399.36,126.33,414.22,126,427.32,127Z"/><path class="cls-3" d="M499.88,101.27c10.39.76,20.82-.19,31.15-1.51a444.53,444.53,0,0,0,96.44-23.45C591.46,102.36,542.85,112.63,499.88,101.27Z"/><path class="cls-3" d="M750,94.45v11.94a230.25,230.25,0,0,1-48.38,9.21A364.54,364.54,0,0,0,750,94.45Z"/></g></g></g></svg>