<svg xmlns="http://www.w3.org/2000/svg" viewBox="0 0 750 500"><defs><style>.cls-1{isolation:isolate;}.cls-2{fill:#fee;opacity:0.2;mix-blend-mode:overlay;}</style></defs><title>Mesa de trabajo 1</title><g class="cls-1"><g id="OBJECTS"><path class="cls-2" d="M750,198.86v88.56H0V20.48a31.55,31.55,0,0,1,13.92,3.15A38.51,38.51,0,0,1,27.24,35.38a56.39,56.39,0,0,1,8.75,17,53.57,53.57,0,0,1,1.15,26.93c5.26-.58,10.09,3.84,11.56,8.92s.27,10.55-1.5,15.53c4.33-5.7,10.26-11.07,17.42-11.27,8.6-.24,18.43,7.08,16.85,15.54,2.72-6,9-11.42,15.45-9.78,4.28,1.08,7.3,5,9,9A28.06,28.06,0,0,1,107,125.7a17.43,17.43,0,0,1,29.85,17.37,16.52,16.52,0,0,1,19.53-5.63c6.74,2.91,13,10.21,11.46,17.39A11.16,11.16,0,0,1,187,156.17c2.66-2.29,7.05-1.25,9.43,1.33s3.24,6.19,3.84,9.66c.45-3.08,4.15-4.86,7.18-4.18s5.37,3.12,7.06,5.73a27.45,27.45,0,0,1,3.92,9.85A14.35,14.35,0,0,1,232.22,169c6,.21,12.63,4.66,14.09,10.48-1.17-9.55-1.63-19.6,2.18-28.44s13-16,22.55-14.52c6.8,1.06,12.44,6.33,15.32,12.58s3.36,13.36,2.89,20.23c-.82,12.07-4.37,23.77-7.89,35.35,1-3.08,4.89-4.59,8-3.71s5.46,3.63,6.67,6.65a32.1,32.1,0,0,1,1.72,9.56c3.61-3.09,9.54-2.26,12.92,1.07,3.18,3.13,4.32,7.89,3.9,12.36.62-3.52,4.36-6.14,8-6.06,3.94.09,7.48,2.7,9.65,6s3.16,7.19,4,11A19.62,19.62,0,0,1,354,229.89c7.52.07,16,5.48,18.77,12.46a20.29,20.29,0,0,1,30.67-20.42c7.75,4.77,11.37,14,13.76,22.81.87,3.2,1.43,7.07.19,9.92A13.71,13.71,0,0,1,431.05,252c5.64,2.07,9.57,7.75,10.24,13.72,2.28-6.19,11.13-8.75,16.36-4.73-1.33-5.73,3.64-12,9.52-12.08,4.74,0,10.5,3.17,11.15,7.87a34.8,34.8,0,0,1,21.6-28.15c4.55-1.76,9.76-2.49,14.26-.59,4.3,1.82,7.55,6.57,6.66,11.1,1.94-7.51,10.12-12.45,17.94-12.26,8,.2,15.39,4.8,20.86,10.67,1.85,2,3.61,4.57,3.57,7.13a19.07,19.07,0,0,1,35.46-4.59c-.22-2.94,1.52-5.77,3.86-7.57a21.91,21.91,0,0,1,8.1-3.42,24.16,24.16,0,0,1,10-.85c3.32.57,5.87,1.69,7.21,4.78a16.42,16.42,0,0,1,31.51-7.1c-1.13-4,1.91-8.4,5.89-9.66s8.41.11,11.77,2.59a38.89,38.89,0,0,1,2.4-27.53c1.17-2.4,2.67-4.77,5-6.15,5.14-3.09,12.19.25,15.21,5.43,2.33,4,2.9,8.68,3,13.37a11.32,11.32,0,0,1,6.15-7.87A13.53,13.53,0,0,1,722.45,198a17.62,17.62,0,0,1,6.36,11.69,11.14,11.14,0,0,1,4.93-9.53,16.9,16.9,0,0,1,11.62-2.45A19.89,19.89,0,0,1,750,198.86Z"/></g></g></svg>