<svg xmlns="http://www.w3.org/2000/svg" viewBox="0 0 750 500"><defs><style>.cls-1{isolation:isolate;}.cls-2{fill:#104f38;}.cls-3{opacity:0.15;}.cls-3,.cls-5{mix-blend-mode:multiply;}.cls-4{fill:#1e9e75;}.cls-5{fill:#300515;opacity:0.08;}</style></defs><title>Mesa de trabajo 1</title><g class="cls-1"><g id="OBJECTS"><path class="cls-2" d="M750,238V500H0V139.49a358.84,358.84,0,0,1,148.64,28.65c30.1,12.87,58.22,29.78,87,45.49q8.13,4.44,16.33,8.72,6.45,3.35,13,6.54a541.55,541.55,0,0,0,59.63,24.92q20.37,7.1,41.25,12.31h0a407.13,407.13,0,0,0,52.62,9.56,356.62,356.62,0,0,0,37.92,2.3,320.08,320.08,0,0,0,52.41-3.87q2.76-.42,5.51-.91c6.56-1.16,13.08-2.53,19.56-4.06,13.27-3.12,26.4-6.89,39.5-10.76,14.12-4.18,28.2-8.49,42.41-12.27h0c11.76-3.14,23.6-5.91,35.6-8A298.78,298.78,0,0,1,750,238Z"/><g class="cls-3"><path class="cls-4" d="M365.81,266.12c-4.71,1.6-9.49,3-14.28,4.2a345.47,345.47,0,0,1-59.72,9.48,517.74,517.74,0,0,1-106.09-3.62c-34.81-4.67-69.38-11.09-104.28-15.13-26.86-3.1-55.1-4.22-81.44-1V216.85q4.65,0,9.3.26C77.82,220.68,143,242.91,210.45,253c34.46,5.18,68.84,4.6,103.47,1.81,3.57-.29,7.12-.63,10.64-1Q344.93,260.91,365.81,266.12Z"/><path class="cls-4" d="M456.36,278a97.18,97.18,0,0,1-8.18,12.12c-22.26,28.21-60.61,37.92-93.36,47.79-17.2,5.18-34.15,10.95-49.52,20.42A102.26,102.26,0,0,0,287,372.24c-2.94,2.88-5.53,6-8.26,9.12-1.17,1.31-2.21,2.84-3.46,4.05s-4.34,2.91-5,3.52c-5.39,5.23-13.67-.09-12.16-7.07q1.24,1.58,0-2.09l.33-2.48a16.38,16.38,0,0,1,1.35-3.77,44.42,44.42,0,0,1,3.11-5.29,66.06,66.06,0,0,1,7.75-9.22,66.91,66.91,0,0,1-9.66,4.29c-3.73,1.28-7.56,1.71-11.22,3.17-4.67,1.85-9-4.45-6.42-8.36s4.51-8.25,7.62-12a49.33,49.33,0,0,1,11.79-9.78A184.07,184.07,0,0,1,286.62,324c31.3-13.95,64.55-21.4,96.82-32.5a202.55,202.55,0,0,0,35-15.85A356.62,356.62,0,0,0,456.36,278Z"/><path class="cls-4" d="M264.93,228.89c-9.64-.5-19.23-1.53-28.53-2.61-14.64-1.7-29.14-4.25-43.66-6.77-15.87-2.75-31.87-5-47.79-7.55-29.8-4.84-59.45-10.83-89.56-13.52A385,385,0,0,0,0,197.13V169.05c51.65-2.88,103.33,6.72,152.85,21.51,27.42,8.19,54.64,17.4,82.74,23.07q8.13,4.44,16.33,8.72Q258.37,225.7,264.93,228.89Z"/><path class="cls-4" d="M664,384.25c-1.69,6.29-9.6,6.49-13,1.7-4.82-6.79-9.42-13.16-13.2-20.61a69.72,69.72,0,0,0-12.41-17.66C615,337,601.84,329.72,588.75,323c-14.7-7.6-29.84-14.16-44.81-21.2a109.78,109.78,0,0,1-19.53-11.18,64.93,64.93,0,0,1-15.64-16.46q2.76-.42,5.51-.91c6.56-1.16,13.08-2.53,19.56-4.06.78.46,1.55.91,2.32,1.33,13.19,7.31,27.76,12,41.5,18.13,14.28,6.37,28.64,13,42,21.14,13.65,8.27,25.66,18.68,34.84,31.78,4.24,6,8.43,13.1,10.24,20.3C666.64,369.27,666,376.89,664,384.25Z"/><path class="cls-4" d="M750,277.22a255.58,255.58,0,0,0-24.59-9.55c-35.58-11.88-72.94-15-109.65-21.56h0c-14.21,3.78-28.29,8.09-42.41,12.27,19.32,9.31,41.37,14.76,61.09,20.84,38.72,11.94,80.47,19.19,115.57,39.3Z"/></g><path class="cls-5" d="M750,291.88V493.52a6.48,6.48,0,0,1-6.48,6.48H6.48A6.48,6.48,0,0,1,0,493.52V283.31a6.47,6.47,0,0,1,10.26-5.26,88.09,88.09,0,0,0,34.17,15.18C58,296,76.68,291.42,77.25,277.62c.19-4.7-2-9.31-1.41-14,1.06-8.42,11-13.28,19.4-12s15.45,6.71,22.17,11.89c17.1,13.18,35,25.87,55.35,33.1s43.63,8.49,63.06-.92c5.31-2.56,10.8-6,16.62-5.07,6.41,1,10.71,6.83,15.57,11.12a39.23,39.23,0,0,0,35.37,8.17,6.5,6.5,0,0,0,4.79-6.8V303a6.4,6.4,0,0,1,5.39-6.92c9.42-1.29,20.13,7.95,30,12.43,29.64,13.38,62.77-18.88,94.66-12.5,4.5.91,9.42,4.67,10.3,8.49a6.29,6.29,0,0,0,5.83,5c36.19,1.45,70.94-21.49,107.25-23.2a6.46,6.46,0,0,1,6.79,6.37,9.67,9.67,0,0,0,2.6,6.61c3.47,3.56,8.83,4.45,13.8,4.44,31.43-.08,60.23-28,90.26-23.83a6.39,6.39,0,0,1,5.53,5.46c.71,6.35,7.09,12,13.8,12.93,8.17,1.16,16.18-2.46,23.57-6.14s15.15-7.61,23.39-7.11a23.86,23.86,0,0,1,3.42.46A6.5,6.5,0,0,1,750,291.88Z"/></g></g></svg>